SplineFontDB: 3.0
FontName: Yantiq
FullName: Yantiq
FamilyName: Yantiq
Weight: Regular
Copyright: Copyright (c) 2016, Aydi Rainkarnichi. (https://github.com/rainkarnichi). Yantiq typeface version 0.1. Open Font License.
Version: 0.1
ItalicAngle: 0
UnderlinePosition: 0
UnderlineWidth: 0
Ascent: 800
Descent: 200
InvalidEm: 0
LayerCount: 2
Layer: 0 0 "Back" 1
Layer: 1 0 "Fore" 0
XUID: [1021 878 1981670163 10158]
OS2Version: 0
OS2_WeightWidthSlopeOnly: 0
OS2_UseTypoMetrics: 0
CreationTime: 1452623005
ModificationTime: 1452867037
PfmFamily: 17
TTFWeight: 400
TTFWidth: 5
LineGap: 90
VLineGap: 90
OS2TypoAscent: 0
OS2TypoAOffset: 1
OS2TypoDescent: 0
OS2TypoDOffset: 1
OS2TypoLinegap: 90
OS2WinAscent: 0
OS2WinAOffset: 1
OS2WinDescent: 0
OS2WinDOffset: 1
HheadAscent: 0
HheadAOffset: 1
HheadDescent: 0
HheadDOffset: 1
OS2Vendor: 'PfEd'
MarkAttachClasses: 1
DEI: 91125

StartChar: a
Encoding: 97 97 0
Width: 558
VWidth: 1199
Flags: HW
LayerCount: 2
Fore
SplineSet
301 584 m 0
 285 584 201 490 191 477 c 0
 185 469 178 462 171 453 c 0
 168 449 161 444 148 419 c 0
 135 394 123 372 119 368 c 0
 100 350 86 285 86 243 c 0
 86 225 89 210 95 206 c 0
 96 205 98 205 100 205 c 0
 128 205 227 279 279 340 c 0
 297 361 312 468 312 533 c 0
 312 563 309 584 301 584 c 0
353 688 m 0
 373 688 389 682 395 668 c 0
 400 658 410 638 417 624 c 0
 422 614 424 603 424 588 c 0
 424 573 422 554 417 528 c 0
 410 490 403 401 402 332 c 0
 402 317 402 304 402 293 c 0
 402 207 407 198 441 147 c 0
 460 117 474 86 474 74 c 0
 474 73 474 72 474 71 c 0
 470 62 467 49 467 43 c 0
 467 36 455 32 441 32 c 0
 423 32 400 38 391 47 c 0
 377 63 337 162 327 209 c 0
 323 224 319 236 316 236 c 0
 314 236 283 215 249 188 c 0
 174 132 122 105 83 105 c 0
 59 105 40 115 24 136 c 0
 5 160 -0 184 0 235 c 0
 0 272 5 310 10 320 c 0
 80 458 105 500 138 536 c 0
 160 559 187 590 199 603 c 0
 243 653 309 686 353 688 c 0
EndSplineSet
Validated: 1
EndChar

StartChar: b
Encoding: 98 98 1
Width: 476
VWidth: 1199
Flags: HW
LayerCount: 2
Fore
SplineSet
222 364 m 0
 211 364 201 356 182 337 c 0
 147 304 129 251 129 194 c 0
 129 169 132 143 140 118 c 0
 142 109 155 103 168 103 c 0
 195 103 284 202 295 244 c 0
 296 249 297 255 297 261 c 0
 297 297 274 341 244 356 c 0
 235 361 228 364 222 364 c 0
69 763 m 2
 112 763 l 1
 104 688 l 2
 92 573 87 486 87 433 c 0
 87 409 88 393 90 383 c 2
 99 351 l 1
 121 388 l 2
 142 422 186 444 232 444 c 0
 241 444 251 443 260 441 c 0
 299 434 368 369 386 322 c 0
 390 310 393 295 393 278 c 0
 393 242 383 198 366 164 c 0
 344 119 236 19 210 19 c 0
 199 19 177 5 162 -11 c 0
 143 -31 128 -43 114 -43 c 0
 80 -43 56 24 19 190 c 0
 8 241 0 393 0 489 c 0
 0 534 2 568 6 572 c 0
 9 575 12 610 14 649 c 0
 16 755 20 763 69 763 c 2
EndSplineSet
Validated: 1
EndChar

StartChar: c
Encoding: 99 99 2
Width: 517
VWidth: 1199
Flags: HW
LayerCount: 2
Fore
SplineSet
23 515 m 0
 51 605 102 652 170 653 c 0
 198 653 224 645 240 630 c 2
 265 606 l 1
 225 589 l 2
 202 579 175 568 164 565 c 0
 153 561 130 535 113 505 c 0
 88 464 77 405 77 347 c 0
 77 264 101 183 143 161 c 0
 152 156 166 154 181 154 c 0
 213 154 250 163 250 175 c 0
 250 180 257 185 266 185 c 0
 275 185 295 199 310 215 c 0
 330 236 352 246 373 246 c 0
 403 246 428 224 433 185 c 0
 433 183 433 180 433 178 c 0
 433 160 425 152 400 144 c 0
 380 137 342 118 316 102 c 0
 277 79 229 67 183 67 c 0
 153 67 125 72 102 83 c 0
 78 95 58 108 58 114 c 0
 58 119 51 131 42 139 c 0
 15 167 0 250 0 339 c 0
 0 401 7 466 23 515 c 0
EndSplineSet
Validated: 1
EndChar

StartChar: d
Encoding: 100 100 3
Width: 514
VWidth: 1199
Flags: HW
LayerCount: 2
Fore
SplineSet
171 348 m 0
 137 346 116 317 95 251 c 0
 88 228 84 192 84 160 c 0
 84 131 87 106 94 99 c 0
 95 98 97 97 99 97 c 0
 122 97 196 186 243 273 c 0
 252 289 257 300 257 307 c 0
 257 318 247 324 227 333 c 0
 205 343 187 348 171 348 c 0
300 743 m 0
 332 743 345 726 345 685 c 0
 345 670 343 651 340 629 c 0
 335 601 333 563 333 522 c 0
 333 421 346 298 365 239 c 0
 377 202 401 144 419 110 c 0
 439 70 449 42 449 22 c 0
 449 7 443 -4 432 -13 c 0
 424 -19 417 -23 410 -23 c 0
 389 -23 367 7 335 77 c 0
 308 136 287 167 277 167 c 0
 272 167 270 161 270 149 c 0
 270 139 266 131 261 131 c 0
 256 131 241 114 228 95 c 0
 215 75 184 44 160 27 c 0
 137 11 113 3 91 3 c 0
 64 3 39 16 22 42 c 0
 8 63 -0 108 -0 156 c 0
 -0 182 2 209 7 234 c 0
 21 307 64 391 100 415 c 0
 118 426 156 437 185 438 c 0
 247 441 245 437 247 592 c 0
 248 714 258 743 300 743 c 0
EndSplineSet
Validated: 1
EndChar

StartChar: e
Encoding: 101 101 4
Width: 524
VWidth: 1199
Flags: HW
LayerCount: 2
Fore
SplineSet
198 609 m 0
 191 609 184 608 177 605 c 0
 136 590 116 564 116 521 c 0
 116 495 123 462 138 421 c 0
 144 404 164 390 180 390 c 0
 184 390 188 391 191 393 c 0
 209 405 251 508 251 542 c 0
 251 580 227 608 198 609 c 0
214 681 m 0
 272 680 320 634 331 568 c 0
 332 563 332 558 332 552 c 0
 332 473 264 324 214 303 c 0
 203 298 189 296 176 296 c 0
 146 296 117 307 111 323 c 0
 107 332 97 340 88 340 c 0
 77 340 72 327 72 298 c 0
 72 295 72 292 72 289 c 0
 73 188 118 118 178 118 c 0
 183 118 188 119 194 120 c 0
 212 123 257 156 293 191 c 0
 337 235 367 255 392 255 c 0
 404 255 415 250 426 239 c 0
 436 229 442 221 442 213 c 0
 442 201 430 189 406 170 c 0
 385 154 360 133 349 122 c 0
 293 66 233 39 179 39 c 0
 107 39 46 86 18 175 c 0
 6 214 -0 304 -0 390 c 0
 -0 484 7 574 21 593 c 0
 29 606 43 616 51 616 c 0
 58 616 81 629 100 646 c 0
 119 662 146 676 160 677 c 0
 174 678 193 679 203 680 c 0
 207 681 211 681 214 681 c 0
EndSplineSet
Validated: 1
EndChar

StartChar: f
Encoding: 102 102 5
Width: 398
VWidth: 1199
Flags: HW
HStem: 380 92<183.471 293.697> 719 70<162.053 270.857>
VStem: 70 73<459.311 699.931> 154 92<-45.7441 72.8364>
LayerCount: 2
Fore
SplineSet
19 382 m 0
 31 392 50 404 63 408 c 0
 76 413 81 419 81 443 c 0
 81 455 80 470 78 491 c 0
 72 545 70 590 70 626 c 0
 70 700 82 739 108 759 c 0
 133 779 166 789 198 789 c 0
 230 789 261 779 281 759 c 0
 290 750 294 743 294 737 c 0
 294 725 276 719 238 719 c 0
 236 719 234 719 232 719 c 0
 230 719 229 719 227 719 c 0
 221 719 216 719 212 719 c 0
 154 719 150 715 150 604 c 0
 150 600 153 542 153 538 c 0
 153 457 159 454 190 454 c 0
 200 454 208 457 224 463 c 0
 240 469 249 472 257 472 c 0
 269 472 278 466 293 451 c 0
 308 437 315 429 315 422 c 0
 315 416 310 411 302 402 c 0
 291 389 266 380 245 380 c 0
 198 380 178 375 178 332 c 0
 178 304 186 261 199 194 c 0
 215 108 234 26 241 12 c 0
 244 5 246 -1 246 -7 c 0
 246 -18 239 -29 225 -45 c 0
 211 -61 204 -69 197 -69 c 0
 191 -69 185 -64 176 -56 c 0
 162 -43 154 -20 154 13 c 0
 154 64 140 160 117 263 c 0
 105 314 101 320 70 320 c 0
 51 320 28 328 17 339 c 0
 6 350 -0 356 -0 361 c 0
 -0 366 6 371 19 382 c 0
EndSplineSet
Validated: 1
EndChar

StartChar: g
Encoding: 103 103 6
Width: 450
VWidth: 1305
Flags: HW
LayerCount: 2
Fore
SplineSet
191 457 m 0
 157 457 86 342 85 246 c 0
 85 245 85 245 85 244 c 0
 85 209 104 190 122 190 c 0
 130 190 137 194 143 202 c 0
 154 217 180 249 188 258 c 0
 195 266 227 331 236 364 c 0
 238 372 239 380 239 387 c 0
 239 422 218 445 206 452 c 0
 201 455 196 457 191 457 c 0
200 554 m 0
 201 554 202 554 204 554 c 0
 237 554 271 541 303 511 c 0
 331 486 341 472 341 455 c 0
 341 448 339 440 336 430 c 0
 330 409 327 373 327 333 c 0
 327 273 333 202 346 157 c 0
 351 141 353 123 353 104 c 0
 353 -64 182 -306 94 -306 c 0
 42 -306 28 -294 6 -232 c 0
 -2 -209 -7 -195 -7 -186 c 0
 -7 -176 -2 -171 7 -165 c 0
 12 -162 16 -161 19 -161 c 0
 27 -161 31 -170 35 -190 c 0
 39 -210 46 -225 52 -225 c 0
 53 -225 53 -225 53 -225 c 2
 58 -223 69 -222 75 -222 c 0
 97 -222 208 -104 239 -28 c 0
 251 1 256 50 256 94 c 0
 256 140 250 181 242 190 c 0
 241 191 241 191 240 191 c 0
 232 191 209 172 185 147 c 0
 154 114 133 102 107 102 c 0
 98 102 89 104 78 106 c 0
 52 111 22 123 13 133 c 0
 2 144 -3 180 -3 223 c 0
 -3 263 1 308 10 346 c 0
 41 474 124 550 200 554 c 0
EndSplineSet
Validated: 1
EndChar

StartChar: h
Encoding: 104 104 7
Width: 537
VWidth: 1199
Flags: HW
LayerCount: 2
Fore
SplineSet
2 688 m 0
 5 701 12 708 22 708 c 0
 31 708 43 702 57 691 c 0
 75 678 80 652 86 547 c 0
 94 396 115 301 139 301 c 0
 146 301 154 312 162 333 c 0
 179 380 257 433 311 433 c 0
 334 433 354 427 354 421 c 0
 354 414 360 409 369 409 c 0
 398 409 418 354 422 259 c 0
 425 206 432 152 437 139 c 0
 449 112 455 86 455 66 c 0
 455 34 440 13 414 13 c 0
 371 13 354 58 354 169 c 0
 354 294 336 356 298 356 c 0
 286 356 273 350 258 339 c 0
 211 304 177 230 171 147 c 0
 168 106 160 66 152 58 c 0
 146 52 140 49 134 49 c 0
 114 49 94 78 88 122 c 0
 83 151 74 189 67 208 c 0
 62 222 58 234 58 239 c 0
 58 240 58 241 59 241 c 0
 60 241 60 242 60 244 c 0
 60 250 57 264 52 280 c 0
 45 301 35 351 29 391 c 0
 23 430 16 479 13 499 c 0
 5 548 0 616 0 657 c 0
 0 671 1 682 2 688 c 0
EndSplineSet
Validated: 1
EndChar

StartChar: i
Encoding: 105 105 8
Width: 247
VWidth: 1199
Flags: HW
VStem: 10.3232 120.424<635.345 708.381> 41.2109 117.401<21.294 121.657>
LayerCount: 2
Fore
SplineSet
52 498 m 0x40
 59 498 69 495 82 489 c 0
 102 481 119 468 119 461 c 0
 120 453 121 377 122 291 c 0
 124 161 128 130 147 102 c 0
 159 85 164 73 164 59 c 0
 164 51 162 42 159 30 c 0
 150 1 144 -6 122 -6 c 0
 119 -6 116 -6 112 -6 c 0
 61 -2 50 21 41 145 c 0
 25 363 22 393 10 424 c 0
 4 441 0 449 0 456 c 0
 0 464 7 469 22 483 c 0
 34 493 42 498 52 498 c 0x40
59 727 m 0
 94 727 131 701 131 663 c 0x80
 131 624 98 601 66 601 c 0
 43 601 20 613 10 640 c 0
 3 658 -0 668 -0 677 c 0
 -0 686 4 693 14 705 c 0
 26 720 42 726 59 727 c 0
EndSplineSet
Validated: 1
EndChar

StartChar: j
Encoding: 106 106 9
Width: 350
VWidth: 1199
Flags: HW
LayerCount: 2
Fore
SplineSet
156 586 m 0
 164 586 173 578 189 564 c 0
 211 544 215 526 215 467 c 0
 215 422 227 359 246 299 c 0
 260 256 267 170 267 97 c 0
 267 51 264 9 259 -14 c 0
 235 -116 244 -128 174 -187 c 0
 153 -205 122 -214 93 -214 c 0
 69 -214 46 -207 34 -193 c 0
 6 -160 -13 -110 -13 -79 c 0
 -13 -68 -11 -59 -6 -54 c 0
 -1 -49 3 -47 7 -47 c 0
 16 -47 22 -59 27 -87 c 0
 34 -124 53 -142 83 -142 c 0
 101 -142 166 -68 174 -38 c 0
 177 -24 188 132 188 183 c 0
 188 188 188 192 188 195 c 0
 182 248 137 410 118 447 c 0
 111 460 108 477 108 493 c 0
 108 516 114 540 127 559 c 0
 138 577 146 586 155 586 c 0
 155 586 156 586 156 586 c 0
119 784 m 0
 143 784 162 765 162 735 c 0
 162 727 161 718 157 708 c 0
 149 684 140 673 125 673 c 0
 115 673 102 679 85 689 c 0
 66 699 57 712 57 726 c 0
 57 738 64 751 77 764 c 0
 92 777 107 784 119 784 c 0
EndSplineSet
Validated: 1
EndChar

StartChar: k
Encoding: 107 107 10
Width: 600
VWidth: 1199
Flags: HW
VStem: 4.51562 63.2227<498.883 715.06> 79.9111 82.8975<11.5995 191.881>
LayerCount: 2
Fore
SplineSet
5 716 m 0
 11 724 21 728 31 728 c 0
 46 728 63 719 68 704 c 0
 72 691 77 642 79 596 c 0
 80 550 87 497 95 480 c 2
 109 448 l 1
 168 501 l 2
 200 530 234 554 243 554 c 0
 252 554 260 559 260 566 c 0
 260 572 268 578 277 578 c 0
 286 578 296 582 298 588 c 0
 300 594 328 612 359 630 c 0
 390 647 406 654 419 654 c 0
 426 654 433 651 440 647 c 0
 453 639 464 622 464 610 c 0
 464 585 431 554 410 554 c 0
 402 554 372 537 343 517 c 0
 311 495 296 480 296 460 c 0
 296 444 306 424 327 395 c 0
 340 377 350 358 350 353 c 0
 350 335 478 194 494 194 c 0
 504 194 510 175 510 154 c 0
 510 141 508 126 503 115 c 0
 496 99 486 83 473 79 c 0
 470 78 467 78 463 78 c 0
 434 78 388 111 380 141 c 0
 369 181 221 410 206 410 c 0
 198 410 178 397 161 381 c 0
 140 362 134 354 134 317 c 0
 134 300 135 278 137 246 c 0
 140 188 147 134 151 128 c 0
 156 121 161 90 163 59 c 0
 163 52 163 46 163 41 c 0
 163 11 159 -1 146 -6 c 0
 143 -7 139 -8 136 -8 c 0
 109 -8 80 29 80 67 c 0
 80 88 70 153 57 212 c 0
 44 271 30 360 26 410 c 0
 18 503 15 525 3 638 c 0
 1 654 -0 669 -0 682 c 0
 -0 699 2 712 5 716 c 0
EndSplineSet
Validated: 1
EndChar

StartChar: l
Encoding: 108 108 11
Width: 340
VWidth: 1199
Flags: HW
VStem: 2.35547 81.4121<515.739 772.332> 11.3633 75.832<270.607 701.777>
LayerCount: 2
Fore
SplineSet
16 766 m 0x80
 29 779 45 785 59 785 c 0
 72 785 83 779 84 765 c 0x80
 85 753 86 638 87 510 c 0
 88 365 95 255 104 222 c 0
 117 175 163 59 175 42 c 0
 175 42 175 42 176 42 c 0
 180 42 193 55 208 72 c 0
 223 91 232 99 238 99 c 0
 242 99 246 96 250 90 c 0
 255 83 257 72 257 60 c 0
 257 16 227 -50 195 -63 c 0
 190 -65 185 -66 180 -66 c 0
 151 -66 116 -37 98 3 c 0
 29 163 14 241 11 460 c 0x40
 10 557 6 660 2 691 c 0
 1 703 -0 713 -0 722 c 0
 -0 743 5 755 16 766 c 0x80
EndSplineSet
Validated: 1
EndChar

StartChar: m
Encoding: 109 109 12
Width: 769
VWidth: 1199
Flags: HW
VStem: 2.52051 79.3818<530.155 633.317> 22.208 87.8545<135.918 348.415> 309.902 107.819<222.138 331.132> 550.982 79.7773<249.351 435.529>
LayerCount: 2
Fore
SplineSet
20 630 m 0xb0
 31 640 38 645 44 645 c 0
 50 645 55 641 63 633 c 0
 74 623 82 595 82 571 c 2
 82 528 l 1xb0
 109 557 l 2
 143 593 175 610 211 610 c 0
 218 610 225 609 232 608 c 0
 289 597 320 553 346 445 c 0
 355 409 364 377 366 375 c 0
 366 375 366 375 367 375 c 0
 375 375 442 448 442 458 c 0
 442 462 469 488 502 517 c 0
 541 549 556 560 572 560 c 0
 579 560 586 558 595 554 c 0
 627 541 628 538 631 425 c 0
 632 362 639 293 645 272 c 0
 675 177 686 140 686 127 c 0
 686 123 684 121 682 121 c 0
 676 121 668 110 664 97 c 0
 659 82 652 74 641 74 c 0
 632 74 620 80 605 91 c 0
 589 103 581 128 578 175 c 0
 575 212 569 254 563 268 c 0
 558 283 553 325 551 361 c 0
 549 415 543 440 528 440 c 0
 518 440 504 427 483 404 c 0
 460 378 442 350 442 341 c 0
 442 332 437 325 430 325 c 0
 423 325 418 316 418 304 c 0
 418 280 390 198 379 186 c 0
 376 184 371 183 364 183 c 0
 357 183 348 184 340 186 c 0
 316 192 310 201 310 229 c 0
 310 273 279 411 254 477 c 0
 240 516 226 534 208 534 c 0
 198 534 186 527 172 514 c 0
 134 477 119 412 119 274 c 0
 119 265 119 256 119 246 c 0
 119 238 119 230 119 223 c 0
 119 157 115 101 110 97 c 0
 106 93 98 91 89 91 c 0
 84 91 78 92 73 93 c 0
 44 100 44 100 22 343 c 0x70
 15 422 6 514 3 547 c 0
 1 562 0 574 0 583 c 0
 0 606 6 617 20 630 c 0xb0
EndSplineSet
Validated: 1
EndChar

StartChar: n
Encoding: 110 110 13
Width: 540
VWidth: 1199
Flags: HW
LayerCount: 2
Fore
SplineSet
4 569 m 0
 9 576 28 591 46 603 c 0
 62 613 71 618 79 618 c 0
 86 618 92 613 104 603 c 0
 117 591 123 581 123 558 c 0
 123 546 121 531 119 510 c 2
 111 438 l 1
 187 500 l 2
 248 550 292 573 327 573 c 0
 335 573 343 571 351 569 c 0
 375 562 420 480 431 424 c 0
 435 405 441 378 444 364 c 0
 446 351 451 296 455 242 c 0
 456 218 457 199 457 184 c 0
 457 149 452 135 439 120 c 0
 429 108 423 102 415 102 c 0
 410 102 404 105 395 112 c 0
 375 126 372 145 371 252 c 0
 371 384 355 451 319 484 c 0
 310 492 303 497 296 497 c 0
 281 497 263 480 216 434 c 0
 188 407 175 380 169 342 c 0
 167 328 166 312 166 296 c 0
 166 249 174 200 187 184 c 0
 191 180 192 172 192 163 c 0
 192 157 192 151 190 145 c 0
 185 125 174 118 150 118 c 0
 108 118 101 129 96 194 c 0
 94 222 91 246 90 247 c 0
 88 249 86 254 86 259 c 0
 85 264 80 274 76 280 c 0
 68 293 55 374 49 446 c 0
 47 470 37 500 28 512 c 0
 8 534 -0 547 -0 557 c 0
 -0 561 1 565 4 569 c 0
EndSplineSet
Validated: 1
EndChar

StartChar: o
Encoding: 111 111 14
Width: 480
VWidth: 1199
Flags: HW
LayerCount: 2
Fore
SplineSet
207 518 m 0
 205 518 203 518 201 518 c 0
 149 518 103 492 89 462 c 0
 83 449 77 404 77 362 c 0
 77 299 81 279 100 248 c 0
 119 218 131 211 164 209 c 0
 169 208 174 208 179 208 c 0
 200 208 215 214 226 225 c 0
 271 265 301 356 301 422 c 0
 301 449 296 472 285 486 c 0
 272 502 240 518 207 518 c 0
205 605 m 0
 299 604 352 587 370 554 c 0
 377 541 380 509 380 471 c 0
 380 388 366 274 348 259 c 0
 336 249 310 207 303 184 c 0
 299 173 288 163 279 163 c 0
 270 163 263 159 263 153 c 0
 263 138 205 115 166 115 c 0
 101 115 46 160 9 242 c 0
 -4 271 -10 301 -10 353 c 0
 -10 384 -8 423 -4 474 c 0
 -2 503 8 534 17 543 c 0
 26 553 39 569 45 580 c 0
 54 596 79 601 162 604 c 0
 178 605 192 605 205 605 c 0
EndSplineSet
Validated: 1
EndChar

StartChar: p
Encoding: 112 112 15
Width: 463
VWidth: 1199
Flags: HW
LayerCount: 2
Fore
SplineSet
200 441 m 0
 198 441 196 441 194 441 c 0
 164 441 134 427 113 401 c 0
 109 397 108 369 108 335 c 0
 108 273 113 190 120 183 c 0
 121 182 123 182 125 182 c 0
 148 182 233 242 257 278 c 0
 280 313 291 338 291 360 c 0
 291 378 283 394 268 411 c 0
 250 430 225 440 200 441 c 0
200 519 m 0
 222 519 241 513 271 503 c 0
 334 482 369 432 377 353 c 0
 379 338 379 326 379 317 c 0
 379 297 376 287 370 287 c 0
 363 287 356 280 356 271 c 0
 356 251 232 132 210 130 c 0
 201 129 188 129 179 130 c 0
 171 131 164 127 164 120 c 0
 164 113 157 107 148 107 c 0
 138 107 128 100 125 91 c 0
 122 84 121 70 121 52 c 0
 121 -17 138 -151 159 -223 c 0
 160 -226 160 -229 160 -231 c 0
 160 -256 134 -284 111 -284 c 0
 108 -284 104 -283 101 -282 c 0
 85 -276 62 -202 62 -168 c 0
 62 -162 62 -158 64 -155 c 0
 65 -154 65 -150 65 -145 c 0
 65 -130 62 -101 57 -70 c 0
 51 -29 44 66 42 140 c 0
 41 215 35 275 30 275 c 0
 25 275 20 289 20 305 c 0
 20 322 16 335 10 335 c 0
 -0 335 -7 372 -7 407 c 0
 -7 420 -6 433 -4 443 c 0
 4 477 18 485 110 505 c 0
 152 514 177 519 200 519 c 0
EndSplineSet
Validated: 1
EndChar

StartChar: q
Encoding: 113 113 16
Width: 485
VWidth: 1304
Flags: HW
LayerCount: 2
Fore
SplineSet
192 494 m 0
 181 494 172 486 155 468 c 0
 138 449 123 427 123 417 c 0
 122 408 111 376 97 347 c 0
 81 311 71 250 71 204 c 0
 71 169 77 143 88 143 c 0
 107 143 163 190 163 206 c 0
 163 211 178 233 197 254 c 0
 213 273 224 296 224 307 c 0
 224 308 224 309 224 310 c 0
 220 319 223 330 230 334 c 0
 237 339 243 371 243 407 c 0
 243 459 237 475 215 487 c 0
 206 492 199 494 192 494 c 0
162 587 m 0
 163 587 164 587 166 587 c 0
 191 587 217 577 240 555 c 0
 257 538 287 525 308 525 c 0
 350 525 369 512 369 478 c 0
 369 461 364 438 355 409 c 0
 340 360 332 289 332 210 c 0
 332 78 352 -78 389 -196 c 0
 393 -208 394 -219 394 -230 c 0
 394 -269 371 -298 343 -298 c 0
 330 -298 316 -292 303 -277 c 0
 286 -258 282 -214 282 -173 c 0
 282 -167 282 -161 282 -155 c 0
 282 -154 282 -153 282 -152 c 0
 282 -88 247 159 234 172 c 0
 234 172 234 172 234 172 c 0
 228 172 200 113 179 92 c 0
 143 57 108 41 79 41 c 0
 20 41 -20 102 -20 198 c 0
 -20 232 -15 272 -3 314 c 0
 6 347 23 391 34 413 c 0
 45 435 58 470 63 490 c 0
 77 549 118 584 162 587 c 0
EndSplineSet
Validated: 1
EndChar

StartChar: r
Encoding: 114 114 17
Width: 477
VWidth: 1079
Flags: HW
LayerCount: 2
Fore
SplineSet
-0 579 m 0
 2 589 15 602 29 608 c 0
 35 611 41 612 47 612 c 0
 68 612 86 592 95 552 c 2
 103 521 l 1
 117 549 l 2
 143 597 220 632 293 632 c 0
 305 632 316 631 327 629 c 0
 374 621 401 599 401 573 c 0
 401 562 396 549 384 537 c 0
 374 526 369 521 358 521 c 0
 349 521 336 525 313 532 c 0
 290 540 277 544 265 544 c 0
 253 544 242 539 224 529 c 0
 166 498 136 417 136 290 c 0
 136 244 140 192 148 133 c 0
 155 85 159 56 159 36 c 0
 159 9 151 1 133 -8 c 0
 127 -12 122 -14 117 -14 c 0
 108 -14 101 -8 91 4 c 0
 79 18 70 32 70 36 c 0
 70 40 63 85 54 134 c 0
 46 184 34 231 30 275 c 0
 26 319 21 358 19 361 c 0
 17 365 13 402 9 444 c 0
 5 485 1 529 -1 541 c 0
 -2 546 -2 552 -2 559 c 0
 -2 566 -2 574 -0 579 c 0
EndSplineSet
Validated: 1
EndChar

StartChar: s
Encoding: 115 115 18
Width: 405
VWidth: 1199
Flags: HW
LayerCount: 2
Fore
SplineSet
15 490 m 0
 36 563 131 634 191 634 c 0
 205 634 217 630 226 621 c 0
 236 611 240 599 240 587 c 0
 240 558 215 528 180 527 c 0
 152 527 116 491 98 448 c 0
 93 434 90 423 90 411 c 0
 90 395 94 377 104 348 c 0
 115 313 132 282 141 279 c 0
 150 275 157 267 157 261 c 0
 157 255 169 237 184 222 c 0
 239 166 266 128 285 85 c 0
 296 61 309 30 315 17 c 0
 320 5 323 -9 323 -22 c 0
 323 -88 265 -157 199 -157 c 0
 127 -157 74 -118 73 -65 c 0
 73 -44 78 -32 88 -32 c 0
 94 -32 103 -38 113 -50 c 0
 126 -65 144 -72 162 -72 c 0
 180 -72 198 -64 209 -48 c 0
 217 -37 221 -23 221 -7 c 0
 221 36 191 94 133 162 c 0
 64 243 55 255 38 299 c 0
 28 322 16 346 11 352 c 0
 5 359 2 377 2 399 c 0
 2 427 7 461 15 490 c 0
EndSplineSet
Validated: 1
EndChar

StartChar: t
Encoding: 116 116 19
Width: 633
VWidth: 1199
Flags: HW
LayerCount: 2
Fore
SplineSet
16 335 m 0
 25 349 48 363 67 367 c 0
 85 371 118 385 139 399 c 0
 173 419 178 430 178 472 c 0
 178 526 159 622 141 654 c 0
 134 667 131 681 131 693 c 0
 131 721 148 744 173 744 c 0
 178 744 184 743 189 741 c 0
 224 730 234 706 243 597 c 0
 248 544 253 490 254 477 c 0
 256 463 262 456 275 456 c 0
 277 456 278 456 280 456 c 0
 284 457 288 457 294 457 c 0
 308 457 327 455 342 453 c 0
 375 447 390 430 390 412 c 0
 390 388 365 364 321 364 c 0
 278 363 263 348 263 280 c 0
 263 263 264 242 266 218 c 0
 274 103 288 63 317 63 c 0
 327 63 377 96 428 135 c 0
 490 183 522 205 537 205 c 0
 547 205 550 197 550 182 c 0
 550 157 515 87 502 87 c 0
 499 87 474 68 448 45 c 0
 422 22 394 4 386 3 c 0
 378 3 370 -3 368 -10 c 0
 365 -20 338 -24 309 -24 c 0
 278 -24 244 -18 237 -8 c 0
 215 26 201 95 194 195 c 0
 191 251 186 299 184 301 c 0
 184 301 183 301 182 301 c 0
 175 301 148 295 117 286 c 0
 88 277 72 273 59 273 c 0
 47 273 38 277 26 285 c 0
 8 297 0 301 0 308 c 0
 0 314 6 321 16 335 c 0
EndSplineSet
Validated: 1
EndChar

StartChar: u
Encoding: 117 117 20
Width: 588
VWidth: 1079
Flags: HW
HStem: 583.092 20G<43.3081 61.0103>
VStem: 5.27148 101.662<304.517 580.912> 416.728 32.0273<154.637 384.234>
LayerCount: 2
Fore
SplineSet
5 568 m 0
 20 600 35 601 52 603 c 1
 70 601 80 598 99 582 c 1
 108 570 111 554 111 536 c 0
 111 523 110 509 107 495 c 0
 92 416 86 355 86 310 c 0
 86 268 91 239 98 220 c 0
 115 171 133 151 161 151 c 0
 164 151 167 152 170 152 c 0
 197 155 235 198 254 208 c 0
 260 211 266 215 273 220 c 0
 287 230 300 241 311 252 c 0
 340 283 355 354 355 417 c 0
 355 428 354 440 353 451 c 1
 348 471 346 496 346 519 c 0
 346 556 352 587 362 587 c 0
 364 587 367 587 369 587 c 0
 395 587 409 566 425 554 c 0
 444 540 446 522 449 384 c 0
 451 245 471 224 497 167 c 0
 514 128 523 103 523 85 c 0
 523 65 510 55 484 47 c 0
 479 46 475 45 472 45 c 0
 460 45 453 55 438 86 c 0
 427 112 417 143 417 155 c 0
 416 181 411 194 400 194 c 0
 390 194 376 185 356 166 c 0
 293 106 211 52 148 52 c 0
 93 53 63 71 36 117 c 0
 26 136 19 201 15 327 c 0
 11 428 6 518 2 527 c 0
 1 530 -0 535 -0 540 c 0
 -0 549 2 559 5 568 c 0
EndSplineSet
Validated: 1
EndChar

StartChar: v
Encoding: 118 118 21
Width: 595
VWidth: 1199
Flags: HW
LayerCount: 2
Fore
SplineSet
10 559 m 0
 15 567 37 575 57 576 c 0
 58 576 58 576 59 576 c 0
 101 576 142 535 143 493 c 0
 143 478 149 463 155 459 c 0
 162 455 167 441 167 428 c 0
 167 415 172 405 177 405 c 0
 182 405 191 395 198 383 c 0
 224 332 276 261 287 261 c 0
 293 261 301 279 305 300 c 0
 310 321 323 369 335 405 c 0
 366 502 383 563 386 597 c 0
 389 623 396 628 439 631 c 0
 447 632 454 632 460 632 c 0
 486 632 492 625 503 597 c 0
 509 584 512 575 512 567 c 0
 512 554 503 545 481 523 c 0
 460 503 443 479 443 469 c 0
 443 460 438 443 432 432 c 0
 410 392 383 253 383 180 c 0
 383 119 379 104 360 93 c 0
 354 90 345 88 336 88 c 0
 309 88 275 101 275 116 c 0
 275 123 259 146 239 168 c 0
 219 189 171 256 132 315 c 0
 92 374 47 439 30 458 c 0
 10 480 0 503 0 525 c 0
 0 537 3 548 10 559 c 0
EndSplineSet
Validated: 1
EndChar

StartChar: w
Encoding: 119 119 22
Width: 634
VWidth: 1199
Flags: HW
LayerCount: 2
Fore
SplineSet
24 643 m 0
 36 654 42 659 49 659 c 0
 57 659 65 653 81 641 c 0
 108 621 115 606 117 558 c 0
 126 398 144 264 162 228 c 0
 173 208 179 199 185 199 c 0
 188 199 190 202 193 207 c 0
 216 249 241 340 245 404 c 0
 250 463 261 491 283 491 c 0
 295 491 309 483 328 468 c 0
 351 451 360 432 360 405 c 0
 361 351 410 259 439 259 c 0
 459 259 463 272 472 358 c 0
 475 391 477 414 477 431 c 0
 477 461 472 475 457 500 c 0
 441 528 433 555 433 577 c 0
 433 608 448 629 476 629 c 0
 480 629 484 629 488 628 c 0
 539 618 551 601 551 482 c 0
 551 457 551 429 550 395 c 0
 544 169 535 145 460 145 c 0
 431 145 408 150 408 157 c 0
 408 164 401 169 393 169 c 0
 385 169 364 191 348 217 c 0
 332 243 315 265 311 265 c 0
 302 265 276 208 276 187 c 0
 276 178 265 146 252 116 c 0
 233 71 223 61 198 61 c 0
 121 61 67 187 43 421 c 0
 35 499 23 553 10 560 c 0
 3 564 -0 574 -0 585 c 0
 -0 605 9 629 24 643 c 0
EndSplineSet
Validated: 1
EndChar

StartChar: x
Encoding: 120 120 23
Width: 550
VWidth: 1199
Flags: HW
LayerCount: 2
Fore
SplineSet
16 537 m 0
 26 550 55 558 76 558 c 0
 87 558 96 556 96 549 c 0
 96 534 176 450 189 450 c 0
 206 450 247 520 257 566 c 0
 266 610 309 641 348 641 c 0
 364 641 379 636 391 624 c 0
 400 615 405 603 405 590 c 0
 405 565 388 533 356 498 c 0
 334 474 319 455 319 450 c 0
 319 449 319 449 320 449 c 0
 325 449 317 438 301 425 c 0
 286 412 279 406 279 399 c 0
 279 393 285 387 295 374 c 0
 307 360 327 341 338 332 c 0
 349 324 366 309 376 299 c 0
 386 290 399 282 406 282 c 0
 422 282 468 217 468 194 c 0
 468 174 454 165 435 165 c 0
 409 165 372 181 343 212 c 0
 293 264 242 306 228 306 c 0
 211 306 150 211 126 146 c 0
 114 115 100 86 94 83 c 0
 90 80 84 79 78 79 c 0
 55 79 24 97 24 115 c 0
 24 142 59 234 70 234 c 0
 74 234 86 251 95 273 c 0
 104 294 119 319 128 327 c 0
 137 337 142 346 142 355 c 0
 142 371 128 388 99 413 c 0
 41 461 -0 501 0 509 c 0
 0 513 8 525 16 537 c 0
EndSplineSet
Validated: 1
EndChar

StartChar: y
Encoding: 121 121 24
Width: 495
VWidth: 1306
Flags: HW
LayerCount: 2
Fore
SplineSet
-7 506 m 0
 1 513 14 520 33 520 c 0
 78 520 102 476 102 404 c 0
 102 400 102 395 102 391 c 0
 102 388 102 385 102 382 c 0
 102 310 134 210 151 195 c 0
 153 193 156 192 158 192 c 0
 186 192 233 286 238 406 c 0
 241 486 270 528 297 528 c 0
 323 528 348 491 348 415 c 0
 348 378 365 302 372 269 c 0
 393 173 404 90 404 18 c 0
 404 -102 372 -189 299 -249 c 0
 286 -260 253 -265 220 -265 c 0
 189 -265 159 -260 149 -250 c 0
 139 -240 134 -228 134 -218 c 0
 134 -207 140 -199 151 -199 c 0
 154 -199 157 -199 160 -200 c 0
 168 -202 176 -204 184 -204 c 0
 262 -204 328 -90 328 28 c 0
 328 52 325 76 319 100 c 0
 298 184 293 224 284 224 c 0
 278 224 268 200 245 154 c 0
 221 107 191 78 158 78 c 0
 140 78 122 87 103 105 c 0
 84 125 68 149 68 159 c 0
 68 169 63 187 56 200 c 0
 40 232 -13 414 -18 456 c 0
 -18 459 -18 462 -18 465 c 0
 -18 482 -14 499 -7 506 c 0
EndSplineSet
Validated: 1
EndChar

StartChar: z
Encoding: 122 122 25
Width: 610
VWidth: 1199
Flags: HW
LayerCount: 2
Fore
SplineSet
14 624 m 4
 29 635 186 654 262 654 c 4
 263 654 265 654 267 654 c 4
 326 654 368 617 368 575 c 4
 368 564 365 552 359 541 c 4
 343 512 228 352 206 329 c 4
 198 320 191 305 191 296 c 4
 191 286 187 279 182 279 c 4
 170 278 134 201 134 180 c 4
 134 177 134 176 135 175 c 4
 136 174 141 173 148 173 c 4
 164 173 193 176 224 182 c 4
 269 191 326 200 350 203 c 4
 375 207 399 214 402 220 c 4
 407 228 420 232 436 232 c 4
 463 232 497 221 509 204 c 4
 520 187 527 165 527 151 c 4
 527 144 525 139 521 139 c 4
 519 139 517 140 515 141 c 4
 509 145 503 142 503 135 c 4
 503 128 474 123 432 123 c 4
 393 123 327 115 285 105 c 4
 244 96 196 85 179 83 c 4
 163 80 134 73 115 68 c 4
 108 66 101 65 94 65 c 4
 59 65 26 86 18 118 c 4
 17 121 17 124 17 128 c 4
 17 148 30 181 59 232 c 4
 86 279 107 322 107 328 c 4
 107 334 113 339 119 339 c 4
 126 339 131 344 131 351 c 4
 131 357 161 404 198 455 c 4
 232 503 254 541 254 554 c 4
 254 556 254 557 253 558 c 4
 249 562 239 563 225 563 c 4
 189 563 132 553 125 541 c 4
 120 534 104 531 85 531 c 4
 59 531 27 537 17 548 c 4
 5 559 -0 575 -0 590 c 4
 -0 604 4 616 14 624 c 4
EndSplineSet
Validated: 1
EndChar

StartChar: one
Encoding: 49 49 26
Width: 190
VWidth: 1199
Flags: HW
LayerCount: 2
Fore
SplineSet
8 380 m 0
 12 384 19 484 23 601 c 0
 29 788 32 814 50 817 c 0
 52 817 54 818 56 818 c 0
 91 818 107 759 107 641 c 0
 107 585 103 514 96 430 c 0
 87 330 82 228 82 157 c 0
 82 107 84 72 89 64 c 0
 94 57 91 52 84 52 c 0
 75 52 74 45 83 29 c 0
 91 13 95 -10 95 -32 c 0
 95 -58 90 -82 79 -91 c 0
 73 -96 65 -98 56 -98 c 0
 39 -98 19 -90 9 -75 c 0
 3 -67 0 54 0 169 c 0
 0 274 3 375 8 380 c 0
EndSplineSet
Validated: 1
EndChar

StartChar: two
Encoding: 50 50 27
Width: 536
VWidth: 1199
Flags: HW
LayerCount: 2
Fore
SplineSet
37 100 m 0
 58 137 86 191 99 220 c 0
 112 250 132 285 144 298 c 0
 156 310 165 330 165 340 c 0
 165 351 170 365 176 371 c 0
 190 386 238 529 243 572 c 0
 244 578 244 584 244 590 c 0
 244 630 227 664 205 664 c 0
 193 664 159 645 131 622 c 0
 95 594 75 582 60 582 c 0
 50 582 43 587 35 596 c 0
 30 602 27 612 27 622 c 0
 27 642 37 664 51 664 c 0
 59 664 75 675 87 688 c 0
 99 702 116 712 124 712 c 0
 132 712 141 717 143 724 c 0
 145 730 169 739 196 743 c 0
 208 745 217 746 225 746 c 0
 246 746 258 739 279 719 c 0
 308 693 314 677 316 620 c 0
 316 615 316 611 316 606 c 0
 316 542 298 460 266 393 c 0
 257 372 249 349 249 342 c 0
 249 334 244 328 237 328 c 0
 231 328 225 320 225 310 c 0
 225 294 215 269 187 220 c 0
 172 194 165 179 165 171 c 0
 165 169 166 167 167 166 c 0
 167 166 169 166 170 166 c 0
 180 166 210 170 244 177 c 0
 310 192 356 200 389 200 c 0
 436 200 453 183 453 148 c 0
 453 120 431 107 377 107 c 0
 366 107 354 108 340 109 c 0
 332 110 324 110 316 110 c 0
 238 110 165 80 121 28 c 0
 90 -8 68 -26 49 -26 c 0
 38 -26 29 -20 19 -8 c 0
 7 7 0 15 0 25 c 0
 0 38 11 56 37 100 c 0
EndSplineSet
Validated: 1
EndChar

StartChar: three
Encoding: 51 51 28
Width: 505
VWidth: 1199
Flags: HW
LayerCount: 2
Fore
SplineSet
19 671 m 0
 40 698 101 716 160 716 c 0
 181 716 202 714 221 709 c 0
 269 697 293 674 293 642 c 0
 293 611 271 571 227 524 c 0
 199 494 184 475 184 459 c 0
 184 440 209 427 263 406 c 0
 354 370 390 342 414 287 c 0
 419 276 422 265 422 253 c 0
 422 200 367 137 246 46 c 0
 209 17 187 4 170 4 c 0
 159 4 151 10 142 21 c 0
 137 27 134 33 134 39 c 0
 134 47 138 56 147 70 c 0
 159 87 178 104 191 107 c 0
 203 111 213 118 213 124 c 0
 213 130 221 135 230 135 c 0
 252 135 333 225 333 249 c 0
 333 283 279 323 206 344 c 0
 108 371 82 383 73 406 c 0
 72 409 72 412 72 415 c 0
 72 442 98 492 138 537 c 0
 178 584 198 615 198 631 c 0
 198 639 192 644 181 644 c 0
 167 644 146 638 118 627 c 0
 86 614 69 608 56 608 c 0
 46 608 38 612 26 620 c 0
 8 632 -0 636 -0 643 c 0
 -0 648 7 655 19 671 c 0
EndSplineSet
Validated: 1
EndChar

StartChar: four
Encoding: 52 52 29
Width: 541
VWidth: 1199
Flags: HW
LayerCount: 2
Fore
SplineSet
310 667 m 0
 309 667 309 667 308 667 c 0
 298 667 285 660 265 643 c 0
 227 611 195 585 145 548 c 0
 128 535 120 527 120 520 c 0
 120 513 130 507 151 499 c 0
 169 492 214 483 251 478 c 0
 272 476 286 474 296 474 c 0
 318 474 321 481 326 499 c 0
 331 519 334 547 334 575 c 0
 334 616 328 655 319 663 c 0
 316 665 313 667 310 667 c 0
309 785 m 0
 336 785 353 774 378 742 c 0
 401 712 410 690 410 649 c 0
 410 627 407 598 402 560 c 0
 399 542 398 528 398 518 c 0
 398 495 406 485 429 462 c 0
 448 443 458 427 458 413 c 0
 458 399 446 388 422 382 c 0
 406 378 389 365 383 354 c 0
 369 328 355 184 353 48 c 0
 352 -45 349 -61 331 -65 c 0
 330 -65 328 -65 327 -65 c 0
 316 -65 300 -59 291 -49 c 0
 281 -40 276 -36 276 -6 c 0
 276 29 283 98 297 251 c 0
 301 294 303 324 303 346 c 0
 303 398 289 400 244 401 c 0
 172 402 59 446 13 492 c 0
 5 500 0 505 0 510 c 0
 0 519 10 529 35 555 c 0
 56 576 78 593 84 593 c 0
 99 593 121 611 204 692 c 0
 242 730 274 767 274 773 c 0
 274 780 290 785 309 785 c 0
EndSplineSet
Validated: 1
EndChar

StartChar: five
Encoding: 53 53 30
Width: 577
VWidth: 1199
Flags: HW
LayerCount: 2
Fore
SplineSet
9 327 m 0
 19 388 25 459 25 513 c 0
 25 559 21 592 13 597 c 0
 4 603 4 609 13 618 c 0
 20 625 26 651 26 675 c 0
 26 716 29 720 65 727 c 0
 71 728 77 729 82 729 c 0
 113 729 134 710 134 678 c 0
 134 670 139 666 155 666 c 0
 164 666 176 667 191 669 c 0
 222 674 260 682 276 688 c 0
 294 695 331 698 369 698 c 0
 412 698 456 694 471 686 c 0
 486 678 493 663 493 648 c 0
 493 637 489 625 479 618 c 0
 458 600 363 574 327 574 c 0
 324 574 321 575 319 575 c 0
 285 582 257 585 233 585 c 0
 209 585 189 582 170 575 c 0
 122 559 114 535 111 414 c 2
 110 339 l 1
 167 370 l 2
 199 388 252 403 290 407 c 0
 300 408 309 408 317 408 c 0
 383 408 411 380 419 311 c 0
 420 303 420 295 420 288 c 0
 420 258 411 233 385 182 c 0
 319 53 266 -9 222 -9 c 0
 213 -9 204 -6 195 -1 c 0
 180 9 172 21 172 35 c 0
 172 53 185 72 209 91 c 0
 248 121 309 219 327 282 c 0
 330 291 331 298 331 303 c 0
 331 313 324 317 306 322 c 0
 303 323 299 323 295 323 c 0
 250 323 155 275 124 236 c 0
 111 220 87 202 71 196 c 0
 62 192 55 190 49 190 c 0
 38 190 30 197 18 210 c 0
 5 224 -0 233 -0 253 c 0
 -0 269 3 291 9 327 c 0
EndSplineSet
Validated: 1
EndChar

StartChar: six
Encoding: 54 54 31
Width: 507
VWidth: 1199
Flags: HW
LayerCount: 2
Fore
SplineSet
311 277 m 0
 301 277 290 273 276 262 c 0
 245 239 167 109 162 64 c 0
 163 53 l 0
 163 48 177 38 196 29 c 0
 209 24 220 22 228 22 c 0
 241 22 253 29 274 43 c 0
 321 75 353 156 353 214 c 0
 353 241 346 262 330 271 c 0
 323 274 317 276 311 277 c 0
236 773 m 1
 266 743 l 1
 296 713 l 1
 262 684 l 2
 243 668 223 655 217 655 c 0
 211 655 199 645 190 634 c 0
 121 546 84 439 84 328 c 0
 84 303 86 278 90 253 c 0
 97 207 101 184 103 181 c 0
 107 165 l 0
 112 165 134 193 159 231 c 0
 225 326 258 355 307 357 c 0
 312 357 316 357 321 357 c 0
 383 357 399 343 414 281 c 0
 420 254 424 228 424 202 c 0
 424 122 391 52 326 -8 c 0
 284 -48 270 -53 220 -53 c 0
 119 -53 50 33 19 199 c 0
 6 270 0 300 0 322 c 0
 0 337 3 349 7 367 c 0
 12 390 18 427 20 451 c 0
 28 550 100 675 186 737 c 2
 236 773 l 1
EndSplineSet
Validated: 1
EndChar

StartChar: seven
Encoding: 55 55 32
Width: 488
VWidth: 1199
Flags: HW
LayerCount: 2
Fore
SplineSet
14 662 m 0
 25 685 37 689 84 689 c 0
 116 689 145 694 148 700 c 0
 152 705 190 713 233 716 c 0
 276 720 319 729 328 736 c 0
 333 740 337 742 342 742 c 0
 351 742 362 736 379 721 c 0
 398 705 406 696 406 686 c 0
 406 680 403 673 398 664 c 0
 389 648 380 619 377 599 c 0
 374 579 363 531 353 491 c 0
 343 452 330 390 324 353 c 0
 317 317 306 260 299 227 c 0
 290 180 284 132 284 91 c 0
 284 71 285 53 288 37 c 0
 289 33 289 29 289 26 c 0
 289 -4 271 -22 249 -22 c 0
 238 -22 227 -19 216 -11 c 0
 199 1 193 9 193 29 c 0
 193 38 194 49 196 64 c 0
 204 132 224 245 238 317 c 0
 245 347 261 425 274 491 c 0
 288 557 299 617 299 625 c 0
 299 636 270 646 250 646 c 0
 242 646 235 644 232 640 c 0
 229 634 208 629 187 629 c 0
 166 629 143 624 136 617 c 0
 126 608 102 603 76 603 c 0
 39 603 -0 612 -0 627 c 0
 -0 627 -0 628 0 628 c 0
 0 632 7 647 14 662 c 0
EndSplineSet
Validated: 1
EndChar

StartChar: eight
Encoding: 56 56 33
Width: 392
VWidth: 1199
Flags: HW
LayerCount: 2
Fore
SplineSet
137 343 m 0
 136 342 135 342 134 341 c 0
 115 322 104 267 104 216 c 0
 104 175 111 136 126 121 c 0
 136 111 148 106 159 106 c 0
 195 106 230 154 230 208 c 0
 230 218 229 229 226 240 c 0
 215 281 160 343 139 343 c 0
 138 343 138 343 137 343 c 0
141 620 m 0
 135 620 127 617 113 610 c 0
 93 599 82 579 82 557 c 0
 82 542 88 526 99 511 c 0
 106 502 110 497 115 497 c 0
 121 497 128 504 141 518 c 0
 157 536 166 555 166 573 c 0
 166 585 162 598 155 609 c 0
 151 616 147 620 141 620 c 0
141 695 m 0
 211 694 245 665 245 581 c 0
 245 551 231 507 217 475 c 0
 206 451 181 434 181 419 c 0
 181 396 238 351 272 315 c 0
 297 289 309 251 309 211 c 0
 309 164 292 116 260 83 c 0
 240 62 204 40 180 32 c 0
 165 28 154 25 143 25 c 0
 128 25 115 31 94 42 c 0
 71 55 46 79 38 94 c 0
 28 113 23 161 23 208 c 0
 23 252 27 296 36 318 c 0
 48 348 54 371 54 392 c 0
 54 418 48 442 29 474 c 0
 14 500 12 505 10 508 c 0
 6 515 3 529 3 536 c 0
 3 537 3 538 3 539 c 0
 3 542 5 564 10 589 c 0
 21 644 43 668 98 687 c 0
 113 693 127 695 141 695 c 0
EndSplineSet
Validated: 1
EndChar

StartChar: nine
Encoding: 57 57 34
Width: 415
VWidth: 1199
Flags: HW
LayerCount: 2
Fore
SplineSet
182 643 m 0
 179 642 175 641 171 639 c 0
 143 620 96 520 96 489 c 0
 96 483 97 480 101 480 c 0
 114 480 185 568 195 597 c 0
 198 605 199 612 199 619 c 0
 199 633 192 643 182 643 c 0
213 744 m 0
 284 744 313 688 316 544 c 0
 317 486 322 385 328 321 c 0
 331 291 332 265 332 242 c 0
 332 166 317 119 282 66 c 0
 248 16 200 -24 175 -24 c 0
 142 -24 85 9 70 37 c 0
 64 48 61 56 61 61 c 0
 61 66 64 68 70 68 c 0
 77 68 88 65 105 59 c 0
 119 54 129 51 138 51 c 0
 150 51 160 56 175 68 c 0
 193 81 210 99 215 109 c 0
 219 118 229 138 237 153 c 0
 245 170 251 246 251 312 c 0
 251 349 249 384 245 402 c 0
 242 415 240 429 239 432 c 0
 238 435 233 446 227 456 c 0
 223 462 220 465 217 465 c 0
 211 465 204 458 191 442 c 0
 162 405 97 372 54 372 c 0
 19 372 -0 399 -0 450 c 0
 -0 468 2 489 7 513 c 0
 10 528 17 540 23 540 c 0
 29 540 34 550 34 562 c 0
 34 574 45 594 58 606 c 0
 72 618 82 634 82 641 c 0
 82 649 103 675 128 700 c 0
 162 733 183 744 213 744 c 0
EndSplineSet
Validated: 1
EndChar

StartChar: zero
Encoding: 48 48 35
Width: 596
VWidth: 1199
Flags: HW
LayerCount: 2
Fore
SplineSet
212 574 m 0
 201 573 194 570 182 562 c 0
 133 529 91 409 91 306 c 0
 91 214 112 174 186 148 c 0
 207 141 229 137 250 137 c 0
 265 137 279 139 291 144 c 0
 306 149 334 172 358 198 c 0
 382 224 401 254 404 266 c 0
 407 281 413 301 420 312 c 1
 420 312 421 314 421 319 c 0
 422 324 423 331 423 338 c 0
 425 354 425 373 426 393 c 0
 426 412 425 430 424 444 c 0
 424 451 423 456 423 459 c 0
 419 461 416 467 413 471 c 0
 409 478 405 486 400 496 c 0
 393 512 383 523 362 534 c 0
 342 545 257 574 212 574 c 0
332 636 m 0
 355 636 378 634 388 618 c 0
 389 618 391 616 394 614 c 0
 397 613 401 612 404 612 c 0
 426 612 451 592 461 575 c 0
 462 573 464 571 464 566 c 0
 464 565 463 564 463 563 c 0
 465 559 469 554 475 548 c 0
 495 526 501 480 508 441 c 0
 511 415 513 388 513 363 c 0
 513 305 498 265 480 222 c 0
 473 203 468 187 457 176 c 0
 455 173 452 168 443 168 c 1
 448 168 446 169 444 166 c 0
 442 164 440 160 438 155 c 0
 435 144 427 135 417 125 c 0
 384 95 332 62 287 50 c 0
 270 45 255 43 239 43 c 0
 173 43 122 72 79 106 c 0
 64 118 51 131 41 143 c 0
 31 156 24 167 24 181 c 0
 24 185 23 190 22 192 c 0
 16 193 13 197 11 199 c 0
 1 229 0 259 0 306 c 0
 0 353 1 383 11 413 c 0
 13 415 17 419 22 419 c 1
 22 440 25 455 31 474 c 0
 36 495 42 520 54 532 c 0
 55 535 56 536 56 537 c 0
 56 538 55 539 55 540 c 0
 55 549 58 552 61 559 c 0
 66 567 73 579 81 591 c 0
 118 646 160 677 204 677 c 0
 206 677 208 677 210 677 c 0
 232 675 253 667 273 653 c 0
 284 645 314 636 332 636 c 0
EndSplineSet
Validated: 1
EndChar

StartChar: A
Encoding: 65 65 36
Width: 608
VWidth: 1199
Flags: HW
LayerCount: 2
Fore
SplineSet
233 580 m 0
 233 580 233 580 233 580 c 0
 219 580 168 445 157 376 c 0
 156 371 164 364 175 359 c 0
 187 355 198 358 200 366 c 0
 203 373 214 380 225 380 c 0
 236 381 257 387 271 395 c 0
 284 402 291 407 291 418 c 0
 291 427 286 443 277 470 c 0
 267 503 253 534 246 538 c 0
 239 543 234 551 236 556 c 0
 238 562 237 571 235 578 c 0
 234 579 234 580 233 580 c 0
201 752 m 0
 210 752 231 741 248 727 c 0
 278 704 293 673 353 504 c 0
 370 456 393 418 418 397 c 0
 439 379 448 371 448 362 c 0
 448 357 444 351 438 344 c 0
 427 333 421 325 421 313 c 0
 421 295 436 268 473 204 c 0
 510 140 525 106 525 83 c 0
 525 69 520 59 510 49 c 0
 503 42 496 38 488 38 c 0
 463 38 433 81 387 176 c 0
 356 239 330 292 328 294 c 0
 328 294 327 295 325 295 c 0
 303 295 161 247 143 232 c 0
 113 209 95 155 95 91 c 0
 95 17 71 -32 39 -32 c 0
 33 -32 27 -30 21 -27 c 0
 7 -20 -0 7 -0 44 c 0
 -0 73 4 108 13 146 c 0
 19 172 25 219 27 249 c 0
 29 280 39 319 51 336 c 0
 68 363 110 496 144 638 c 0
 162 710 183 752 201 752 c 0
EndSplineSet
Validated: 1
EndChar

StartChar: B
Encoding: 66 66 37
Width: 598
VWidth: 1199
Flags: HW
LayerCount: 2
Fore
SplineSet
377 335 m 0
 369 335 360 333 350 331 c 0
 326 325 302 321 298 320 c 0
 293 320 267 301 240 278 c 0
 212 255 183 236 175 236 c 0
 167 236 163 224 163 203 c 0
 163 179 169 144 179 104 c 0
 187 78 197 56 203 56 c 0
 229 56 352 198 404 288 c 0
 410 298 413 306 413 313 c 0
 413 327 401 335 380 335 c 0
 379 335 378 335 377 335 c 0
187 703 m 0
 170 703 153 699 141 689 c 0
 125 678 113 638 113 605 c 0
 113 597 114 590 115 584 c 0
 116 574 122 516 126 454 c 0
 131 392 132 361 141 361 c 0
 150 361 167 392 200 453 c 0
 220 490 241 538 245 558 c 0
 250 579 258 599 264 603 c 0
 272 608 275 617 275 628 c 0
 275 646 266 668 250 682 c 0
 234 695 213 703 191 703 c 0
 190 703 188 703 187 703 c 0
116 784 m 0
 130 784 145 783 163 783 c 0
 243 781 267 776 301 752 c 0
 355 714 359 707 359 648 c 0
 359 648 359 647 359 647 c 0
 359 597 306 451 285 442 c 0
 280 440 276 433 276 426 c 0
 276 421 288 418 307 418 c 0
 316 418 326 419 338 420 c 0
 348 421 357 421 367 421 c 0
 457 421 516 378 516 308 c 0
 516 296 510 282 504 278 c 0
 497 274 492 261 492 248 c 0
 492 236 487 224 482 222 c 0
 477 220 456 194 434 164 c 0
 375 82 225 -64 200 -64 c 0
 162 -64 108 -17 108 14 c 0
 108 30 99 74 89 113 c 0
 71 182 52 324 40 482 c 0
 36 528 25 581 16 598 c 0
 5 619 -0 641 -0 658 c 0
 -0 671 3 682 11 686 c 0
 16 688 19 703 19 719 c 0
 19 724 18 728 18 733 c 0
 17 739 17 744 17 748 c 0
 17 777 31 784 102 784 c 0
 106 784 111 784 116 784 c 0
EndSplineSet
Validated: 1
EndChar

StartChar: C
Encoding: 67 67 38
Width: 553
VWidth: 1199
Flags: HW
LayerCount: 2
Fore
SplineSet
178 715 m 0
 217 715 246 709 259 695 c 0
 265 689 270 684 272 679 c 0
 274 674 273 669 269 665 c 0
 265 661 259 659 251 656 c 0
 243 654 232 651 218 649 c 0
 192 645 170 632 163 620 c 0
 159 613 155 606 151 601 c 0
 148 595 145 591 142 589 c 0
 141 588 112 525 110 521 c 0
 108 516 106 511 104 504 c 0
 100 491 97 473 93 454 c 0
 91 443 91 427 91 410 c 0
 91 369 94 319 95 293 c 0
 95 244 100 204 110 174 c 0
 119 145 133 126 149 118 c 0
 157 115 164 111 169 107 c 0
 171 105 173 103 175 101 c 0
 176 100 178 98 178 95 c 0
 178 95 178 95 179 95 c 0
 180 94 183 94 187 94 c 0
 194 94 205 95 217 97 c 0
 241 102 271 112 293 123 c 0
 304 128 316 136 325 145 c 0
 335 153 342 162 345 168 c 0
 352 185 363 196 378 201 c 0
 386 204 394 206 403 206 c 0
 412 206 421 204 431 202 c 0
 443 199 453 195 459 189 c 0
 466 184 470 177 470 169 c 0
 470 153 458 135 435 112 c 0
 384 63 317 27 246 11 c 0
 230 7 216 5 204 5 c 0
 184 5 165 11 137 23 c 0
 69 52 35 103 18 198 c 0
 8 251 -0 283 -0 335 c 0
 -0 362 2 394 8 438 c 0
 12 463 16 488 20 506 c 0
 22 515 36 581 37 586 c 0
 38 589 39 592 40 594 c 0
 41 596 41 597 43 599 c 0
 46 602 51 614 51 622 c 0
 51 628 54 636 58 646 c 0
 63 656 77 662 84 671 c 0
 94 687 118 699 130 704 c 0
 143 709 152 715 178 715 c 0
EndSplineSet
Validated: 1
EndChar

StartChar: D
Encoding: 68 68 39
Width: 494
VWidth: 1199
Flags: HW
LayerCount: 2
Fore
SplineSet
198 663 m 0
 166 663 125 644 102 615 c 0
 92 603 88 594 85 577 c 0
 84 569 84 559 84 546 c 0
 84 533 84 518 85 498 c 0
 88 448 91 331 98 299 c 0
 109 254 139 201 164 170 c 0
 177 154 190 143 196 141 c 0
 199 140 199 140 200 141 c 0
 201 142 202 145 202 153 c 0
 202 158 203 164 205 169 c 0
 207 173 210 178 215 180 c 0
 216 180 220 184 224 189 c 0
 227 195 232 203 237 212 c 0
 247 231 257 257 268 285 c 0
 289 341 315 455 321 498 c 0
 322 504 322 510 322 516 c 0
 322 571 286 625 226 657 c 0
 219 661 209 663 198 663 c 0
54 736 m 0
 62 736 69 733 77 729 c 0
 84 725 93 723 103 723 c 0
 111 723 120 724 128 727 c 0
 140 731 153 733 168 733 c 0
 187 733 208 730 229 724 c 0
 266 714 302 697 326 675 c 0
 337 665 347 654 354 645 c 0
 358 640 361 635 363 631 c 0
 365 627 367 624 367 619 c 0
 367 616 368 614 369 612 c 0
 370 611 371 611 371 611 c 0
 378 611 383 606 387 600 c 0
 390 595 394 587 397 578 c 0
 403 559 408 534 411 503 c 0
 411 501 411 498 411 495 c 0
 411 464 398 386 388 349 c 0
 376 307 361 267 347 246 c 0
 345 244 342 237 339 229 c 0
 336 221 333 211 331 202 c 0
 329 192 325 182 322 173 c 0
 318 164 314 156 309 151 c 0
 307 148 299 137 291 123 c 0
 282 110 272 92 262 75 c 0
 246 45 224 20 204 3 c 0
 194 -5 184 -11 175 -14 c 0
 166 -17 156 -17 150 -11 c 0
 147 -8 146 -6 145 -3 c 0
 144 -1 143 2 142 6 c 0
 141 13 139 21 139 29 c 0
 138 34 134 49 126 66 c 0
 119 82 109 102 98 119 c 0
 88 138 78 156 70 171 c 0
 67 178 64 185 62 190 c 0
 60 196 58 199 58 204 c 0
 58 207 57 210 56 211 c 0
 55 213 55 213 55 213 c 0
 50 213 47 216 44 218 c 0
 42 221 40 224 39 228 c 0
 35 236 32 246 31 258 c 0
 12 373 6 505 1 537 c 0
 0 542 0 548 0 555 c 0
 0 579 4 612 10 641 c 0
 16 674 22 696 28 711 c 0
 31 719 34 725 38 729 c 0
 43 733 48 736 54 736 c 0
EndSplineSet
Validated: 1
EndChar

StartChar: E
Encoding: 69 69 40
Width: 537
VWidth: 1199
Flags: HW
LayerCount: 2
Fore
SplineSet
27 689 m 0
 42 706 77 735 105 753 c 0
 149 782 169 787 246 788 c 0
 255 788 264 788 271 788 c 0
 329 788 341 784 366 759 c 0
 382 742 390 725 390 712 c 0
 390 699 383 691 370 691 c 0
 366 691 361 692 355 694 c 0
 340 699 316 702 292 702 c 0
 256 702 220 696 211 687 c 0
 202 679 195 582 195 512 c 0
 195 482 196 457 199 446 c 0
 202 437 205 433 213 433 c 0
 219 433 229 435 243 440 c 0
 264 447 302 466 327 481 c 0
 357 498 374 506 386 506 c 0
 396 506 403 502 412 493 c 0
 418 487 421 482 421 476 c 0
 421 469 418 460 412 447 c 0
 391 406 368 387 288 342 c 0
 241 317 220 298 217 278 c 0
 216 273 216 268 216 262 c 0
 216 185 273 28 305 28 c 0
 331 28 359 61 392 133 c 0
 410 172 417 187 425 187 c 0
 429 187 433 183 438 176 c 0
 450 161 455 140 455 117 c 0
 455 37 394 -68 330 -68 c 0
 260 -68 226 -43 192 32 c 0
 174 73 154 133 149 166 c 0
 144 199 139 231 137 238 c 0
 133 259 120 416 113 525 c 0
 109 585 104 636 101 638 c 0
 101 638 100 639 99 639 c 0
 94 639 80 629 66 616 c 0
 51 602 37 596 26 596 c 0
 10 596 0 609 0 628 c 0
 0 645 8 667 27 689 c 0
EndSplineSet
Validated: 1
EndChar

StartChar: F
Encoding: 70 70 41
Width: 452
VWidth: 1199
Flags: HW
LayerCount: 2
Fore
SplineSet
4 660 m 0
 10 664 18 682 23 700 c 0
 32 739 61 768 90 768 c 0
 91 768 93 768 95 768 c 0
 97 768 99 767 102 767 c 0
 114 767 130 771 141 777 c 0
 164 789 187 795 209 795 c 0
 234 795 258 787 281 772 c 0
 309 753 322 738 322 728 c 0
 322 715 305 709 269 708 c 0
 175 706 143 690 143 620 c 0
 143 600 146 576 150 547 c 0
 157 494 170 446 178 439 c 0
 181 437 184 436 189 436 c 0
 203 436 228 446 267 466 c 0
 307 487 327 496 340 496 c 0
 348 496 353 492 359 486 c 0
 366 479 370 474 370 468 c 0
 370 460 364 450 350 431 c 0
 336 411 298 376 267 353 c 0
 228 326 210 304 210 285 c 0
 210 285 210 284 210 284 c 0
 210 253 261 57 280 13 c 0
 293 -16 299 -33 299 -46 c 0
 299 -54 297 -60 293 -66 c 0
 289 -73 281 -75 271 -75 c 0
 247 -75 215 -57 211 -35 c 0
 209 -22 199 8 188 30 c 0
 178 53 169 80 167 90 c 0
 166 101 161 125 156 145 c 0
 151 165 139 213 129 253 c 0
 119 292 108 338 105 355 c 0
 102 371 91 433 81 491 c 0
 67 570 56 599 42 603 c 0
 22 609 0 637 0 652 c 0
 0 655 1 658 4 660 c 0
EndSplineSet
Validated: 1
EndChar

StartChar: G
Encoding: 71 71 42
Width: 513
VWidth: 1199
Flags: HW
LayerCount: 2
Fore
SplineSet
336 312 m 4
 332 312 326 307 315 297 c 4
 275 262 240 179 240 138 c 4
 240 123 244 113 255 113 c 4
 291 113 344 208 344 269 c 4
 344 272 344 274 344 277 c 4
 342 301 341 311 336 312 c 4
218 698 m 4
 221 698 224 698 227 698 c 4
 300 698 370 687 398 664 c 4
 411 654 417 645 417 638 c 4
 417 620 374 612 279 612 c 4
 132 611 118 599 118 465 c 4
 118 377 145 252 167 239 c 4
 168 239 169 238 169 238 c 4
 176 238 186 250 195 266 c 4
 217 308 316 401 339 401 c 4
 397 401 430 345 430 272 c 4
 430 232 420 186 399 142 c 4
 359 56 315 22 244 22 c 4
 239 22 234 22 229 22 c 4
 194 24 164 28 163 30 c 4
 140 68 94 179 94 197 c 4
 94 209 90 222 84 226 c 4
 71 234 49 342 40 442 c 4
 37 487 26 543 16 566 c 4
 6 591 -0 607 -0 619 c 4
 -0 635 10 645 32 661 c 4
 64 685 142 698 218 698 c 4
EndSplineSet
Validated: 1
EndChar

StartChar: H
Encoding: 72 72 43
Width: 685
VWidth: 1199
Flags: HW
LayerCount: 2
Fore
SplineSet
14 704 m 0
 25 713 36 717 46 717 c 0
 60 717 73 709 81 694 c 0
 88 680 101 625 109 572 c 2
 125 476 l 1
 229 475 l 2
 246 475 261 474 275 474 c 0
 382 474 412 485 416 520 c 0
 416 522 416 524 416 527 c 0
 416 546 410 575 401 597 c 0
 391 621 382 649 382 659 c 0
 382 683 407 705 431 705 c 0
 433 705 436 704 438 704 c 0
 450 702 464 700 468 699 c 0
 479 698 502 598 502 550 c 0
 502 527 507 505 513 501 c 0
 520 497 524 443 524 381 c 0
 524 377 524 373 524 369 c 0
 524 268 537 212 581 104 c 0
 595 69 601 51 601 39 c 0
 601 30 598 24 591 17 c 0
 581 7 569 3 556 3 c 0
 539 3 521 12 510 29 c 0
 493 56 453 217 434 332 c 2
 424 392 l 1
 346 389 l 2
 195 384 142 374 141 352 c 0
 140 335 139 319 139 304 c 0
 139 238 153 182 184 120 c 0
 191 105 195 94 195 85 c 0
 195 77 192 70 187 62 c 0
 180 51 176 46 169 46 c 0
 163 46 155 50 143 56 c 0
 119 68 105 93 85 158 c 0
 70 205 58 266 58 294 c 0
 58 323 48 361 34 384 c 0
 19 409 11 427 11 443 c 0
 11 455 16 467 24 480 c 0
 28 487 30 496 30 508 c 0
 30 525 26 550 18 587 c 0
 6 640 0 665 0 680 c 0
 0 693 5 697 14 704 c 0
EndSplineSet
Validated: 1
EndChar

StartChar: I
Encoding: 73 73 44
Width: 300
VWidth: 1199
Flags: HW
LayerCount: 2
Fore
SplineSet
11 656 m 0
 24 673 42 682 59 682 c 0
 74 682 90 675 101 660 c 0
 118 639 125 602 131 508 c 0
 139 364 166 203 191 147 c 0
 209 107 216 86 216 72 c 0
 216 65 214 60 211 54 c 0
 205 44 177 38 153 38 c 0
 138 38 124 41 119 46 c 0
 108 57 93 135 67 320 c 0
 45 477 25 574 9 600 c 0
 3 610 -0 619 -0 627 c 0
 -0 637 4 646 11 656 c 0
EndSplineSet
Validated: 1
EndChar

StartChar: J
Encoding: 74 74 45
Width: 406
VWidth: 1199
Flags: HW
LayerCount: 2
Fore
SplineSet
7 723 m 0
 13 755 48 772 128 781 c 0
 162 785 198 792 208 795 c 0
 210 796 211 796 214 796 c 0
 223 796 237 789 249 778 c 0
 270 756 273 737 273 624 c 0
 274 553 280 451 288 398 c 0
 295 345 308 259 315 206 c 0
 321 167 323 131 323 99 c 0
 323 -7 295 -76 247 -76 c 0
 204 -76 148 -40 125 2 c 0
 114 23 108 34 108 43 c 0
 108 50 113 56 122 65 c 0
 137 80 142 81 142 69 c 0
 142 60 154 43 168 30 c 0
 178 21 187 16 195 16 c 0
 216 16 226 51 226 123 c 0
 226 170 222 234 213 314 c 0
 207 373 199 460 196 506 c 0
 188 619 180 666 166 674 c 0
 165 675 162 675 159 675 c 0
 149 675 132 671 114 663 c 0
 97 656 86 652 77 652 c 0
 65 652 54 658 36 669 c 0
 16 681 2 686 2 689 c 0
 0 695 l 0
 1 696 4 709 7 723 c 0
EndSplineSet
Validated: 1
EndChar

StartChar: K
Encoding: 75 75 46
Width: 529
VWidth: 1199
Flags: HW
LayerCount: 2
Fore
SplineSet
3 693 m 0
 5 709 11 714 24 714 c 0
 27 714 32 714 37 713 c 0
 70 707 76 689 81 590 c 0
 84 533 88 524 110 521 c 0
 111 521 112 521 113 521 c 0
 129 521 165 534 197 554 c 0
 231 574 262 590 265 590 c 0
 269 590 301 604 336 621 c 0
 367 636 391 643 408 643 c 0
 434 643 445 627 445 595 c 0
 445 593 445 592 445 590 c 0
 444 555 439 550 384 532 c 0
 335 516 326 512 326 487 c 0
 326 482 327 477 327 470 c 0
 332 408 389 232 423 174 c 0
 438 148 445 127 445 110 c 0
 445 90 435 76 414 71 c 0
 410 70 405 69 401 69 c 0
 350 69 311 152 286 311 c 0
 282 333 275 350 269 350 c 0
 263 350 258 365 258 383 c 0
 258 401 248 429 236 444 c 0
 224 459 218 466 209 466 c 0
 201 466 191 461 173 452 c 0
 114 423 96 405 96 374 c 0
 96 369 96 364 97 358 c 0
 117 231 133 170 158 120 c 0
 176 83 185 58 185 41 c 0
 185 22 175 12 155 7 c 0
 151 6 148 6 144 6 c 0
 106 6 67 55 67 109 c 0
 66 131 53 215 37 295 c 0
 15 403 0 556 0 643 c 0
 0 664 1 681 3 693 c 0
EndSplineSet
Validated: 1
EndChar

StartChar: L
Encoding: 76 76 47
Width: 506
VWidth: 1199
Flags: HW
LayerCount: 2
Fore
SplineSet
14 702 m 0
 23 714 36 720 50 720 c 0
 71 720 93 707 104 684 c 0
 122 647 133 545 133 435 c 0
 133 408 132 381 131 355 c 0
 129 316 128 273 128 238 c 0
 128 213 128 192 129 179 c 0
 133 126 135 123 176 115 c 0
 186 113 195 112 202 112 c 0
 217 112 226 117 233 126 c 0
 248 147 301 169 334 169 c 0
 346 169 372 154 392 135 c 0
 415 115 423 101 423 83 c 0
 423 79 423 75 422 70 c 0
 413 20 389 9 277 6 c 0
 220 4 160 2 146 1 c 0
 141 1 136 0 131 0 c 0
 91 0 62 15 50 41 c 0
 44 54 41 98 41 173 c 0
 41 209 42 252 43 302 c 0
 45 368 46 415 46 451 c 0
 46 535 40 555 24 593 c 0
 7 631 -0 651 -0 667 c 0
 -0 680 5 689 14 702 c 0
EndSplineSet
Validated: 1
EndChar

StartChar: M
Encoding: 77 77 48
Width: 794
VWidth: 1199
Flags: HW
LayerCount: 2
Fore
SplineSet
2 644 m 0
 6 645 14 645 18 644 c 0
 23 644 27 648 27 655 c 0
 27 662 36 667 46 667 c 0
 78 667 96 639 96 591 c 0
 96 588 96 586 96 583 c 0
 96 579 96 575 96 571 c 0
 96 541 102 526 114 526 c 0
 121 526 130 531 140 541 c 0
 151 552 160 556 160 551 c 0
 160 550 160 550 161 550 c 0
 165 550 178 561 193 578 c 0
 215 604 259 626 280 626 c 0
 287 626 291 624 291 618 c 0
 291 613 298 602 306 593 c 0
 328 570 371 476 381 430 c 0
 386 409 395 391 401 391 c 0
 422 391 457 432 466 466 c 0
 470 484 479 499 485 499 c 0
 491 499 495 505 495 513 c 0
 495 528 556 583 572 583 c 0
 590 583 627 533 627 510 c 0
 627 498 633 485 639 481 c 0
 646 477 651 460 651 444 c 0
 651 428 656 405 662 394 c 0
 695 329 711 148 711 112 c 0
 711 79 706 71 681 64 c 0
 676 63 671 62 666 62 c 0
 638 62 605 76 602 91 c 0
 602 96 599 121 596 147 c 0
 588 228 568 418 544 433 c 0
 542 434 539 435 537 435 c 0
 521 435 499 411 490 378 c 0
 486 362 477 338 472 325 c 0
 467 312 456 278 449 251 c 0
 438 211 418 189 397 189 c 0
 385 189 373 196 361 211 c 0
 349 226 339 250 339 266 c 0
 339 281 334 297 327 301 c 0
 320 306 317 316 320 325 c 0
 321 328 322 331 322 336 c 0
 322 375 285 470 258 497 c 2
 229 524 l 1
 197 491 l 2
 180 472 159 442 150 423 c 0
 141 402 136 350 136 295 c 0
 136 232 142 164 154 136 c 0
 162 116 167 104 167 95 c 0
 167 86 162 79 153 69 c 0
 145 59 130 53 119 53 c 0
 116 53 114 53 112 54 c 0
 87 60 52 136 44 200 c 0
 41 222 34 331 27 343 c 0
 21 356 15 402 15 447 c 0
 14 492 10 555 5 586 c 0
 1 605 -0 622 -0 633 c 0
 -0 640 0 644 2 644 c 0
EndSplineSet
Validated: 1
EndChar

StartChar: N
Encoding: 78 78 49
Width: 601
VWidth: 1199
Flags: HW
LayerCount: 2
Fore
SplineSet
6 617 m 0
 10 636 22 646 38 646 c 0
 61 646 93 627 127 590 c 0
 154 561 180 530 186 520 c 0
 191 511 223 488 256 469 c 0
 289 450 319 432 322 428 c 0
 325 424 340 415 354 407 c 0
 363 402 369 399 374 399 c 0
 380 399 383 404 386 416 c 0
 387 419 387 422 387 426 c 0
 387 444 382 475 374 503 c 0
 357 562 349 595 349 615 c 0
 349 632 354 641 363 651 c 0
 373 660 379 665 387 665 c 0
 394 665 402 661 414 655 c 0
 456 632 462 615 469 494 c 0
 472 434 484 364 494 338 c 0
 505 311 515 269 517 243 c 0
 517 237 517 232 517 228 c 0
 517 203 512 194 496 188 c 0
 488 185 480 183 472 183 c 0
 442 183 413 206 398 244 c 0
 384 280 363 300 300 337 c 0
 256 363 203 397 183 412 c 0
 162 427 136 440 124 440 c 0
 112 440 107 437 107 416 c 0
 107 405 108 389 111 365 c 0
 116 323 122 267 124 238 c 0
 126 210 131 168 135 145 c 0
 137 132 139 120 139 109 c 0
 139 76 127 56 107 56 c 1
 50 82 45 146 45 201 c 0
 45 213 45 224 45 234 c 0
 45 255 45 274 39 285 c 0
 34 293 28 345 26 400 c 0
 24 455 17 511 10 523 c 0
 3 536 0 548 0 565 c 0
 0 579 2 595 6 617 c 0
EndSplineSet
Validated: 1
EndChar

StartChar: O
Encoding: 79 79 50
Width: 482
VWidth: 1199
Flags: HW
LayerCount: 2
Fore
SplineSet
239 603 m 4
 238 603 237 603 236 603 c 4
 184 603 124 543 103 454 c 4
 95 419 91 371 91 324 c 4
 91 270 96 218 107 192 c 4
 120 162 135 147 158 142 c 4
 177 138 197 133 203 131 c 4
 203 131 203 131 204 131 c 4
 211 131 233 146 253 166 c 4
 294 207 313 284 313 416 c 4
 313 429 312 443 312 457 c 4
 311 534 305 561 288 580 c 4
 274 596 257 603 239 603 c 4
264 675 m 4
 298 675 314 669 341 650 c 4
 384 621 399 584 399 469 c 4
 399 438 398 400 396 356 c 4
 388 173 372 126 308 83 c 4
 269 57 229 45 191 45 c 4
 126 45 66 81 28 149 c 4
 20 163 15 178 15 185 c 4
 15 186 15 187 15 188 c 4
 15 189 16 191 16 193 c 4
 16 202 12 221 7 239 c 4
 3 255 -0 270 -0 279 c 4
 -0 282 0 284 1 285 c 4
 4 288 8 335 10 390 c 4
 12 445 19 501 26 515 c 4
 33 528 45 562 53 590 c 4
 64 631 72 641 93 641 c 4
 108 641 127 647 134 654 c 4
 141 661 181 670 223 673 c 4
 240 674 253 675 264 675 c 4
EndSplineSet
Validated: 1
EndChar

StartChar: P
Encoding: 80 80 51
Width: 462
VWidth: 1199
Flags: HW
LayerCount: 2
Fore
SplineSet
187 680 m 0
 180 680 173 678 169 676 c 0
 152 666 126 587 126 549 c 0
 126 547 126 545 126 543 c 0
 128 526 130 500 130 485 c 0
 131 474 132 468 136 468 c 0
 143 468 156 480 186 508 c 0
 230 549 258 601 258 635 c 0
 258 644 256 652 251 658 c 0
 240 671 209 680 187 680 c 0
201 777 m 0
 203 777 205 777 207 777 c 0
 221 777 232 774 235 768 c 0
 238 763 252 759 264 759 c 0
 296 759 357 699 373 653 c 0
 377 641 379 631 379 622 c 0
 379 608 375 594 366 575 c 0
 342 524 223 401 186 388 c 0
 159 379 136 357 136 341 c 0
 136 340 137 338 137 337 c 0
 140 328 145 299 148 272 c 0
 158 184 171 130 192 81 c 0
 204 54 216 24 219 13 c 0
 220 10 221 7 221 3 c 0
 221 -23 193 -57 169 -57 c 0
 141 -57 108 -20 108 12 c 0
 108 26 102 41 96 45 c 0
 89 49 84 68 84 87 c 0
 84 106 79 134 73 149 c 0
 67 164 53 271 41 387 c 0
 30 502 16 602 10 608 c 0
 3 616 -0 631 -0 647 c 0
 -0 667 5 687 14 696 c 0
 22 704 36 711 44 711 c 0
 53 711 60 715 60 720 c 0
 60 744 149 775 201 777 c 0
EndSplineSet
Validated: 1
EndChar

StartChar: Q
Encoding: 81 81 52
Width: 788
VWidth: 1199
Flags: HW
LayerCount: 2
Fore
SplineSet
358 634 m 0
 349 634 340 627 334 610 c 0
 328 592 324 564 324 536 c 0
 324 508 328 480 334 463 c 0
 341 447 353 413 362 389 c 0
 371 364 379 353 387 353 c 0
 391 353 395 356 399 361 c 0
 416 384 431 415 436 492 c 0
 436 495 436 498 436 501 c 0
 436 569 387 632 358 634 c 0
235 672 m 0
 235 672 235 672 234 672 c 0
 219 672 163 615 147 576 c 0
 116 500 91 367 91 296 c 0
 91 281 93 269 95 261 c 0
 97 253 99 236 99 218 c 0
 99 211 99 204 98 198 c 0
 98 196 98 194 98 192 c 0
 98 171 103 153 110 149 c 0
 118 145 121 134 117 123 c 0
 116 121 116 119 116 117 c 0
 116 101 138 74 167 43 c 0
 168 42 170 41 172 41 c 0
 194 41 266 83 279 105 c 0
 287 121 307 134 312 134 c 0
 318 134 329 154 338 178 c 0
 344 195 348 207 348 218 c 0
 348 231 343 243 333 261 c 0
 285 350 238 488 238 571 c 0
 238 573 238 574 238 576 c 0
 239 621 239 662 239 668 c 0
 238 671 237 672 235 672 c 0
212 765 m 0
 222 764 238 756 254 743 c 0
 271 730 287 721 293 721 c 0
 295 721 296 721 296 722 c 0
 299 726 312 728 335 728 c 0
 351 728 373 727 400 725 c 0
 412 724 437 704 456 679 c 0
 501 620 524 558 524 498 c 0
 524 490 524 482 523 474 c 0
 517 416 503 390 468 271 c 0
 462 250 459 233 459 217 c 0
 459 187 471 163 497 131 c 0
 529 93 541 92 656 89 c 0
 694 88 705 86 705 75 c 0
 705 73 705 71 704 68 c 0
 696 31 665 17 592 17 c 0
 516 17 463 39 437 82 c 0
 429 94 426 100 420 100 c 0
 415 100 408 96 396 88 c 0
 382 78 370 63 370 56 c 0
 370 48 364 42 357 42 c 0
 350 42 344 35 344 26 c 0
 344 4 290 -35 247 -43 c 0
 240 -44 230 -45 219 -45 c 0
 199 -45 175 -43 155 -39 c 0
 107 -29 95 -21 74 15 c 0
 61 38 45 65 38 75 c 0
 31 85 25 100 25 108 c 0
 25 117 18 124 9 124 c 0
 -3 124 -3 126 10 133 c 0
 19 137 23 143 23 156 c 0
 23 163 21 173 18 186 c 0
 11 216 6 295 6 336 c 0
 6 350 6 360 8 361 c 0
 10 363 15 394 19 432 c 0
 23 469 32 511 39 526 c 0
 46 540 52 563 52 577 c 0
 52 591 58 602 65 602 c 0
 72 602 75 608 71 615 c 0
 70 617 69 620 69 623 c 0
 69 653 126 713 204 763 c 0
 206 765 209 765 212 765 c 0
EndSplineSet
Validated: 1
EndChar

StartChar: R
Encoding: 82 82 53
Width: 770
VWidth: 1199
Flags: HW
LayerCount: 2
Fore
SplineSet
159 684 m 0
 145 681 141 630 141 630 c 1
 134 615 133 592 133 578 c 0
 133 570 132 555 132 540 c 0
 132 519 134 499 142 499 c 0
 143 499 144 500 146 501 c 0
 165 514 206 584 208 620 c 0
 208 621 208 622 208 622 c 0
 208 652 175 684 161 684 c 0
 160 684 160 684 159 684 c 0
108 777 m 0
 110 777 177 777 180 777 c 0
 228 768 253 742 277 700 c 0
 289 678 295 665 295 646 c 0
 295 632 292 614 286 587 c 0
 278 548 263 503 252 486 c 0
 227 449 193 424 193 410 c 0
 193 406 197 404 204 402 c 0
 251 392 414 329 418 320 c 0
 420 315 432 311 444 311 c 0
 456 311 469 306 473 300 c 0
 477 294 492 287 507 283 c 0
 619 255 645 246 668 225 c 0
 682 212 688 204 688 194 c 0
 688 188 685 181 681 172 c 0
 671 149 660 138 641 138 c 0
 618 138 583 154 522 187 c 0
 509 194 475 206 447 214 c 0
 420 221 389 235 380 244 c 0
 370 254 360 259 356 255 c 0
 355 254 354 254 352 254 c 0
 344 254 327 259 310 266 c 0
 255 291 185 313 166 313 c 0
 163 313 162 312 162 311 c 0
 162 311 162 310 162 310 c 0
 166 304 164 299 157 299 c 0
 149 299 144 279 144 257 c 0
 144 237 148 215 156 208 c 0
 162 201 175 156 185 106 c 0
 192 67 196 44 196 27 c 0
 196 11 192 2 185 -10 c 0
 175 -25 162 -37 156 -37 c 0
 135 -37 96 10 95 38 c 0
 93 70 91 80 80 119 c 0
 76 135 70 184 67 226 c 0
 64 287 58 306 41 316 c 0
 14 331 0 349 0 369 c 0
 0 385 9 402 26 418 c 1
 26 418 l 1
 41 432 56 443 61 443 c 0
 64 443 65 469 65 507 c 0
 65 526 65 548 64 572 c 0
 63 590 63 607 63 623 c 0
 63 723 77 777 108 777 c 0
EndSplineSet
Validated: 1
EndChar

StartChar: S
Encoding: 83 83 54
Width: 379
VWidth: 1199
Flags: HW
LayerCount: 2
Fore
SplineSet
6 536 m 0
 18 589 117 660 204 679 c 0
 211 681 217 681 222 681 c 0
 236 681 243 674 251 656 c 0
 255 647 257 639 257 631 c 0
 257 607 239 590 210 590 c 0
 173 590 81 532 81 508 c 0
 81 471 115 422 180 363 c 0
 255 294 296 218 296 156 c 0
 296 132 290 111 278 92 c 0
 265 72 239 59 192 48 c 0
 166 42 150 38 138 38 c 0
 121 38 114 47 97 67 c 0
 84 82 78 95 78 106 c 0
 78 123 94 134 124 134 c 0
 162 134 213 158 213 177 c 0
 213 213 187 252 118 320 c 0
 30 404 0 445 0 494 c 0
 0 507 2 521 6 536 c 0
EndSplineSet
Validated: 1
EndChar

StartChar: T
Encoding: 84 84 55
Width: 658
VWidth: 1199
Flags: HW
LayerCount: 2
Fore
SplineSet
14 519 m 0
 34 543 63 558 162 597 c 0
 207 615 250 635 256 640 c 0
 262 646 283 651 302 651 c 0
 321 651 346 656 358 662 c 0
 377 672 439 684 515 692 c 0
 519 692 522 693 525 693 c 0
 556 693 575 676 575 648 c 0
 575 611 539 592 472 591 c 0
 395 591 374 580 374 494 c 0
 374 473 375 448 377 417 c 0
 381 346 389 276 395 261 c 0
 400 247 407 192 409 141 c 0
 410 124 410 110 410 98 c 0
 410 55 405 43 392 34 c 0
 384 29 378 27 372 27 c 0
 346 27 334 72 329 178 c 0
 324 285 298 477 280 533 c 0
 277 543 272 548 262 548 c 0
 257 548 250 546 241 544 c 0
 184 527 83 480 83 470 c 0
 83 459 63 452 43 452 c 0
 33 452 22 454 16 459 c 0
 5 468 -0 477 -0 487 c 0
 -0 497 5 507 14 519 c 0
EndSplineSet
Validated: 1
EndChar

StartChar: U
Encoding: 85 85 56
Width: 560
VWidth: 1199
Flags: HW
LayerCount: 2
Fore
SplineSet
21 658 m 0
 30 663 50 668 57 668 c 0
 87 668 98 620 104 488 c 0
 115 284 127 230 183 179 c 0
 206 158 225 148 248 148 c 0
 287 148 311 172 340 223 c 0
 385 303 400 369 400 428 c 0
 400 462 395 501 380 531 c 0
 365 563 362 582 362 597 c 0
 362 609 368 619 378 629 c 0
 384 635 399 638 406 638 c 0
 428 638 452 615 464 579 c 0
 473 552 477 490 477 435 c 0
 477 378 473 320 463 289 c 0
 442 219 377 118 333 86 c 0
 311 70 279 62 248 62 c 0
 225 62 202 67 185 76 c 0
 141 102 92 149 92 165 c 0
 92 174 88 181 83 181 c 0
 60 181 39 261 25 403 c 0
 21 443 16 494 13 507 c 0
 10 521 5 557 2 588 c 0
 1 601 0 611 0 620 c 0
 0 642 6 650 21 658 c 0
EndSplineSet
Validated: 1
EndChar

StartChar: V
Encoding: 86 86 57
Width: 688
VWidth: 1199
Flags: HW
LayerCount: 2
Fore
SplineSet
3 547 m 0
 6 556 24 561 45 561 c 0
 72 561 105 553 118 539 c 0
 129 527 138 511 138 503 c 0
 138 491 186 372 259 240 c 0
 277 207 300 188 315 188 c 0
 324 188 330 196 330 212 c 0
 330 233 364 353 408 459 c 0
 452 561 474 624 474 649 c 0
 474 682 515 729 544 729 c 0
 572 729 606 692 606 662 c 0
 606 649 594 625 579 609 c 0
 550 577 540 557 499 458 c 0
 462 366 442 278 412 154 c 0
 397 93 378 34 369 25 c 0
 362 18 349 15 335 15 c 0
 313 15 288 23 283 36 c 0
 281 42 269 58 256 70 c 0
 244 83 233 97 232 102 c 0
 228 124 215 148 197 168 c 0
 181 186 122 292 120 308 c 0
 119 316 76 392 40 427 c 0
 17 451 0 493 0 526 c 0
 0 533 1 541 3 547 c 0
EndSplineSet
Validated: 1
EndChar

StartChar: W
Encoding: 87 87 58
Width: 938
VWidth: 1199
Flags: HW
LayerCount: 2
Fore
SplineSet
15 595 m 0
 25 604 39 608 53 608 c 0
 87 608 124 584 124 553 c 0
 124 531 158 443 170 433 c 0
 175 430 188 408 201 385 c 0
 214 362 230 333 237 320 c 0
 244 307 254 291 259 284 c 0
 265 277 276 261 285 248 c 0
 292 238 299 232 306 232 c 0
 324 232 340 270 357 346 c 0
 369 397 381 448 383 459 c 0
 386 472 411 479 432 479 c 0
 447 479 460 475 460 466 c 0
 460 458 471 438 484 421 c 0
 497 405 508 384 508 375 c 0
 508 358 544 276 555 265 c 0
 559 262 570 245 579 227 c 0
 588 209 603 192 613 188 c 0
 615 187 617 187 620 187 c 0
 639 187 663 215 664 241 c 0
 664 251 672 275 682 294 c 0
 692 313 700 343 700 360 c 0
 700 378 705 398 711 404 c 0
 723 417 734 483 744 599 c 0
 749 664 754 677 779 688 c 0
 788 692 795 695 802 695 c 0
 812 695 820 690 832 679 c 0
 847 665 855 653 855 640 c 0
 855 626 848 611 834 591 c 0
 814 562 792 482 780 391 c 0
 777 372 765 323 754 283 c 0
 727 188 712 134 703 98 c 0
 696 68 665 25 650 25 c 0
 623 25 511 183 473 274 c 0
 459 306 436 336 428 336 c 0
 426 336 425 334 425 330 c 0
 425 329 425 327 425 325 c 0
 425 324 425 323 425 322 c 0
 425 311 420 289 413 271 c 0
 405 252 396 198 393 152 c 0
 391 106 383 64 377 58 c 0
 371 52 364 49 356 49 c 0
 332 49 304 73 288 109 c 0
 276 136 260 164 252 173 c 0
 244 181 228 207 215 230 c 0
 168 316 82 441 45 475 c 0
 16 503 0 533 0 559 c 0
 0 573 5 586 15 595 c 0
EndSplineSet
Validated: 1
EndChar

StartChar: X
Encoding: 88 88 59
Width: 608
VWidth: 1199
Flags: HW
LayerCount: 2
Fore
SplineSet
13 649 m 0
 25 659 29 659 29 649 c 0
 29 641 41 635 55 635 c 0
 70 635 111 605 158 557 c 0
 201 514 240 479 244 479 c 0
 264 479 353 592 353 618 c 0
 353 630 406 680 427 687 c 0
 431 688 435 689 438 689 c 0
 459 689 473 668 473 636 c 0
 473 614 462 598 437 583 c 0
 417 572 401 557 401 552 c 0
 401 546 394 534 386 525 c 0
 354 492 329 449 329 426 c 0
 329 396 419 297 467 274 c 0
 504 256 525 225 525 196 c 0
 525 176 515 158 495 145 c 0
 488 141 483 138 477 138 c 0
 466 138 456 148 433 175 c 0
 382 237 282 335 272 335 c 0
 257 335 137 115 137 89 c 0
 137 82 129 65 119 51 c 0
 110 38 97 31 85 31 c 0
 68 31 53 43 50 64 c 0
 50 65 50 65 50 66 c 0
 50 96 115 233 163 301 c 0
 175 319 189 350 193 371 c 0
 194 378 195 385 195 390 c 0
 195 411 185 425 154 457 c 0
 128 484 85 521 58 540 c 0
 21 566 0 597 0 621 c 0
 0 632 4 642 13 649 c 0
EndSplineSet
Validated: 1
EndChar

StartChar: Y
Encoding: 89 89 60
Width: 556
VWidth: 1199
Flags: HW
LayerCount: 2
Fore
SplineSet
42 674 m 0
 77 674 89 668 108 636 c 0
 121 615 134 584 138 567 c 0
 142 550 162 515 184 490 c 0
 208 462 218 451 229 451 c 0
 235 451 241 454 249 459 c 0
 290 485 342 593 354 680 c 0
 359 713 371 728 393 728 c 0
 398 728 403 727 409 726 c 0
 438 718 463 688 472 650 c 0
 473 645 474 640 474 635 c 0
 474 618 464 603 439 576 c 0
 359 491 299 330 299 226 c 0
 299 195 305 169 317 152 c 0
 326 139 339 109 345 84 c 0
 349 70 351 59 351 51 c 0
 351 37 345 29 331 15 c 0
 314 -1 305 -8 296 -8 c 0
 287 -8 278 -2 265 11 c 0
 234 42 229 64 220 199 c 0
 212 319 212 321 166 374 c 0
 140 403 111 444 101 465 c 0
 91 487 64 526 41 552 c 0
 14 584 0 612 0 637 c 0
 0 672 3 674 42 674 c 0
EndSplineSet
Validated: 1
EndChar

StartChar: Z
Encoding: 90 90 61
Width: 998
VWidth: 1199
Flags: HW
LayerCount: 2
Fore
SplineSet
23 629 m 0
 37 647 45 654 57 654 c 0
 63 654 70 652 80 648 c 0
 98 641 181 635 264 635 c 0
 469 634 544 618 544 568 c 0
 544 563 543 558 542 552 c 0
 536 528 374 369 278 297 c 0
 244 271 217 245 217 238 c 0
 217 236 217 235 217 233 c 0
 217 219 223 210 301 210 c 0
 343 210 405 213 499 219 c 0
 549 223 593 224 632 224 c 0
 851 224 916 174 916 120 c 0
 916 115 915 109 914 103 c 0
 911 87 905 73 900 72 c 0
 896 72 878 69 860 67 c 0
 857 67 854 66 851 66 c 0
 835 66 819 71 812 78 c 0
 783 106 653 120 407 122 c 0
 223 123 146 129 104 142 c 0
 59 156 38 173 38 193 c 0
 38 208 49 225 72 245 c 0
 95 264 137 301 166 327 c 0
 195 352 223 373 228 373 c 0
 244 373 367 489 384 521 c 0
 386 525 388 528 388 531 c 0
 388 537 378 540 347 540 c 0
 326 540 297 539 255 537 c 0
 177 535 98 528 79 523 c 0
 71 521 65 520 58 520 c 0
 45 520 34 525 22 535 c 0
 7 549 -0 562 -0 577 c 0
 -0 592 8 609 23 629 c 0
EndSplineSet
Validated: 1
EndChar

StartChar: period
Encoding: 46 46 62
Width: 268
VWidth: 1199
Flags: HW
LayerCount: 2
Fore
SplineSet
13 160 m 0
 28 180 54 194 72 194 c 0
 78 194 83 192 86 188 c 0
 90 182 99 180 107 183 c 0
 109 184 111 184 113 184 c 0
 138 184 176 146 183 109 c 0
 184 102 185 95 185 90 c 0
 185 70 176 58 151 34 c 0
 130 13 105 -4 95 -4 c 0
 75 -4 32 18 11 39 c 0
 1 49 -4 70 -4 92 c 0
 -4 117 2 144 13 160 c 0
EndSplineSet
Validated: 1
EndChar

StartChar: comma
Encoding: 44 44 63
Width: 280
VWidth: 1199
Flags: HW
LayerCount: 2
Fore
SplineSet
34 -129 m 0
 82 -101 96 -99 96 -29 c 0
 96 -22 96 -14 96 -5 c 0
 95 16 96 19 83 74 c 0
 77 98 73 118 73 135 c 0
 73 157 80 173 100 186 c 0
 114 195 122 199 128 199 c 0
 136 199 142 195 153 185 c 0
 184 157 198 113 198 -3 c 0
 198 -80 192 -88 167 -139 c 0
 141 -191 129 -202 95 -209 c 0
 82 -211 71 -213 61 -213 c 0
 34 -213 19 -202 6 -178 c 0
 2 -171 -0 -166 -0 -161 c 0
 -0 -151 10 -143 34 -129 c 0
EndSplineSet
Validated: 1
EndChar

StartChar: colon
Encoding: 58 58 64
Width: 224
VWidth: 1199
Flags: HW
LayerCount: 2
Fore
SplineSet
79 214 m 0
 107 214 130 193 139 154 c 0
 140 149 141 144 141 139 c 0
 141 101 104 73 68 73 c 0
 51 73 35 79 23 93 c 0
 5 114 -4 130 -4 146 c 0
 -4 158 2 169 13 180 c 0
 36 202 59 213 79 214 c 0
67 527 m 0
 85 526 102 517 114 498 c 0
 124 483 128 468 128 454 c 0
 128 428 113 408 84 402 c 0
 77 400 70 400 64 400 c 0
 34 400 13 417 13 444 c 0
 13 456 8 468 1 470 c 0
 -1 471 -2 472 -2 475 c 0
 -2 481 3 491 13 501 c 0
 29 518 47 527 64 527 c 0
 65 527 66 527 67 527 c 0
EndSplineSet
Validated: 1
EndChar

StartChar: semicolon
Encoding: 59 59 65
Width: 236
VWidth: 1199
Flags: HW
LayerCount: 2
Fore
SplineSet
68 224 m 0
 75 224 84 222 94 217 c 0
 134 199 153 171 153 131 c 0
 153 119 151 105 148 91 c 0
 140 61 92 -36 78 -49 c 0
 65 -62 57 -67 47 -67 c 0
 40 -67 33 -64 22 -59 c 0
 11 -54 7 -42 7 -26 c 0
 7 6 21 57 25 127 c 0
 29 194 41 224 68 224 c 0
68 509 m 0
 82 509 91 503 101 487 c 0
 119 460 127 443 127 429 c 0
 127 418 122 409 112 398 c 0
 100 386 82 379 63 379 c 0
 44 379 23 386 7 398 c 0
 -1 405 -5 422 -5 440 c 0
 -5 461 0 483 10 490 c 0
 17 495 36 503 53 507 c 0
 58 508 63 509 68 509 c 0
EndSplineSet
Validated: 1
EndChar

StartChar: at
Encoding: 64 64 66
Width: 627
VWidth: 1199
Flags: HW
LayerCount: 2
Fore
SplineSet
211 371 m 0
 194 371 145 318 145 299 c 0
 145 297 145 295 146 294 c 0
 149 288 147 278 142 269 c 0
 136 259 133 243 133 227 c 0
 133 205 139 183 149 183 c 0
 158 183 190 213 203 239 c 0
 219 270 227 308 227 335 c 0
 227 356 222 371 211 371 c 0
262 687 m 0
 264 687 266 687 267 687 c 0
 384 687 420 654 502 483 c 0
 516 454 529 419 531 405 c 0
 540 354 544 324 544 307 c 0
 544 294 542 288 537 285 c 0
 531 281 525 266 525 252 c 0
 525 227 484 173 440 138 c 0
 421 124 386 115 357 115 c 0
 336 115 318 120 310 129 c 0
 301 139 288 147 280 147 c 0
 264 147 228 115 202 77 c 0
 192 63 174 51 163 51 c 0
 151 51 141 47 141 42 c 0
 141 37 126 33 108 33 c 0
 65 34 36 86 36 153 c 0
 36 168 38 184 41 201 c 0
 43 215 51 258 59 297 c 0
 86 449 131 523 197 523 c 0
 212 523 228 519 245 512 c 0
 309 485 317 473 319 393 c 0
 323 284 333 244 361 229 c 0
 380 219 387 220 391 230 c 0
 393 237 402 243 411 243 c 0
 436 243 465 299 465 345 c 0
 465 406 431 483 379 537 c 2
 334 585 l 1
 229 587 l 2
 141 588 126 588 126 606 c 0
 126 609 126 613 127 617 c 0
 132 665 174 687 262 687 c 0
EndSplineSet
Validated: 1
EndChar

StartChar: quotedbl
Encoding: 34 34 67
Width: 387
VWidth: 1199
Flags: HW
LayerCount: 2
Fore
SplineSet
300 1057 m 0
 323 1056 349 1034 360 1003 c 0
 362 996 364 990 364 983 c 0
 364 966 354 949 328 913 c 0
 305 880 270 838 251 818 c 0
 232 800 223 792 216 792 c 0
 210 792 206 796 200 805 c 0
 191 817 186 822 186 832 c 0
 186 845 195 865 216 918 c 0
 262 1033 270 1048 288 1055 c 0
 292 1057 296 1057 300 1057 c 0
111 1121 m 0
 124 1121 137 1116 151 1105 c 0
 164 1095 170 1076 170 1052 c 0
 170 1008 149 948 112 902 c 0
 71 851 57 836 43 836 c 0
 41 836 38 837 35 838 c 0
 23 843 17 862 17 885 c 0
 17 907 23 934 34 954 c 0
 44 970 52 1001 52 1022 c 0
 52 1084 76 1121 110 1121 c 0
 110 1121 111 1121 111 1121 c 0
EndSplineSet
Validated: 1
EndChar

StartChar: asterisk
Encoding: 42 42 68
Width: 588
VWidth: 1199
Flags: HW
LayerCount: 2
Fore
SplineSet
1 369 m 0
 5 385 25 390 125 396 c 0
 195 400 224 410 224 431 c 0
 224 432 224 433 224 434 c 0
 220 459 182 530 173 530 c 0
 168 530 166 533 169 536 c 0
 172 539 169 548 163 555 c 0
 152 568 148 579 148 600 c 0
 148 605 148 609 148 614 c 0
 149 629 154 633 174 633 c 0
 194 633 202 627 214 602 c 0
 222 585 229 566 230 561 c 0
 233 543 239 534 246 534 c 0
 257 534 269 554 274 589 c 0
 281 634 298 673 314 678 c 0
 328 683 348 676 343 668 c 0
 343 667 342 667 342 666 c 0
 342 663 353 661 364 661 c 0
 376 661 389 663 394 667 c 0
 396 669 399 670 403 670 c 0
 418 670 441 650 441 633 c 0
 441 625 426 601 407 580 c 0
 388 560 373 540 373 537 c 0
 373 534 363 517 351 499 c 0
 339 482 330 460 330 450 c 0
 330 441 333 436 348 436 c 0
 362 436 387 441 431 449 c 0
 440 451 449 452 457 452 c 0
 486 452 504 440 504 422 c 0
 504 414 500 404 492 394 c 0
 482 381 468 375 448 375 c 0
 423 375 367 362 357 353 c 0
 356 353 356 352 356 351 c 0
 356 343 376 310 400 279 c 0
 416 259 423 244 423 231 c 0
 423 222 419 214 411 206 c 0
 404 199 398 198 398 203 c 0
 398 208 393 212 387 212 c 0
 380 212 365 226 353 244 c 0
 340 262 322 282 312 288 c 0
 305 293 300 295 295 295 c 0
 290 295 285 292 279 286 c 0
 268 275 265 251 264 175 c 0
 262 45 263 40 248 40 c 0
 247 40 245 40 244 40 c 0
 217 40 203 67 203 114 c 0
 203 122 203 131 204 141 c 0
 208 173 213 202 217 206 c 0
 219 208 219 210 219 214 c 0
 219 228 207 255 199 255 c 0
 195 255 180 241 164 224 c 0
 108 161 86 140 72 140 c 0
 66 140 62 143 57 148 c 0
 50 155 46 162 46 169 c 0
 46 176 50 183 57 190 c 0
 76 209 136 283 143 295 c 0
 146 299 147 303 147 306 c 0
 147 317 129 319 79 319 c 0
 28 319 17 322 8 337 c 0
 3 344 0 354 0 363 c 0
 0 365 1 367 1 369 c 0
EndSplineSet
Validated: 1
EndChar

StartChar: numbersign
Encoding: 35 35 69
Width: 672
VWidth: 1199
Flags: HW
LayerCount: 2
Fore
SplineSet
250 421 m 4
 224 419 203 399 199 357 c 4
 199 351 l 4
 199 345 214 335 232 326 c 4
 256 316 274 310 288 310 c 4
 306 310 318 318 328 335 c 4
 338 352 343 365 343 375 c 4
 343 386 336 393 321 396 c 4
 308 399 293 405 288 408 c 4
 276 417 265 421 254 421 c 4
 252 421 251 421 250 421 c 4
318 681 m 4
 320 681 322 680 324 679 c 4
 331 677 335 672 335 661 c 4
 335 657 334 651 333 645 c 4
 329 618 290 548 271 535 c 4
 267 532 266 527 269 523 c 4
 272 520 271 512 267 507 c 4
 265 504 264 502 264 499 c 4
 264 486 288 471 326 462 c 4
 341 458 353 456 363 456 c 4
 380 456 387 464 387 482 c 4
 387 493 391 503 395 503 c 4
 399 503 405 525 407 552 c 4
 410 579 413 606 414 612 c 4
 415 618 427 623 441 623 c 4
 455 623 463 619 460 614 c 4
 457 610 459 606 463 606 c 4
 471 606 476 595 476 583 c 4
 476 575 473 567 468 562 c 4
 461 557 456 544 456 534 c 4
 455 524 450 506 443 494 c 4
 434 480 430 462 430 449 c 4
 430 435 434 425 443 425 c 4
 450 425 456 422 456 418 c 4
 456 413 467 408 480 405 c 4
 528 395 566 386 566 383 c 4
 566 383 566 383 565 383 c 4
 561 383 563 377 569 370 c 4
 576 364 584 360 587 362 c 4
 587 362 587 362 587 362 c 4
 589 362 589 359 589 355 c 4
 589 343 585 321 581 317 c 4
 577 313 559 310 546 310 c 4
 539 310 533 311 533 313 c 4
 533 326 465 358 428 362 c 4
 420 363 414 364 409 364 c 4
 395 364 391 356 378 326 c 4
 371 310 366 298 366 290 c 4
 366 275 382 271 422 266 c 4
 480 258 487 255 498 231 c 4
 501 224 503 217 503 211 c 4
 503 187 482 169 459 169 c 4
 447 169 436 173 425 183 c 4
 410 197 355 215 333 215 c 4
 329 215 327 215 325 214 c 4
 322 211 318 204 318 197 c 4
 318 190 315 185 311 185 c 4
 304 185 273 125 262 90 c 4
 259 79 251 64 245 58 c 4
 238 51 228 48 221 48 c 4
 213 48 206 51 206 58 c 4
 204 72 204 83 204 92 c 4
 204 112 207 122 217 130 c 4
 225 138 232 148 233 154 c 4
 233 159 240 173 250 185 c 4
 261 199 266 212 266 223 c 4
 266 235 259 246 245 252 c 4
 233 257 217 262 211 262 c 4
 204 262 198 266 198 270 c 4
 198 275 190 276 179 272 c 4
 159 264 139 223 138 187 c 4
 138 176 134 167 129 167 c 4
 125 167 121 160 121 151 c 4
 121 129 96 73 86 73 c 4
 82 73 74 81 69 91 c 4
 66 96 65 105 65 115 c 4
 65 141 75 181 92 219 c 4
 102 241 107 261 107 278 c 4
 107 297 101 312 88 318 c 4
 78 322 69 329 69 333 c 4
 69 336 63 339 56 339 c 4
 41 339 5 372 -2 391 c 4
 -2 392 -2 393 -2 394 c 4
 -2 402 3 413 13 423 c 4
 24 435 41 443 51 443 c 4
 57 443 61 441 61 436 c 4
 61 420 93 390 118 383 c 4
 126 381 132 379 137 379 c 4
 147 379 152 385 163 403 c 4
 173 419 181 433 181 436 c 4
 181 449 146 477 130 477 c 4
 120 477 113 481 116 485 c 4
 119 490 115 494 108 494 c 4
 85 494 68 521 68 542 c 4
 68 553 73 563 84 565 c 4
 85 565 86 565 88 565 c 4
 107 565 153 547 171 531 c 4
 179 523 189 519 199 519 c 4
 213 519 225 527 229 541 c 4
 232 553 238 563 242 563 c 4
 246 563 250 572 250 584 c 4
 250 596 253 606 258 606 c 4
 263 606 267 613 267 622 c 4
 267 632 271 642 276 645 c 4
 280 648 282 653 280 658 c 4
 279 659 279 660 279 661 c 4
 279 670 302 681 318 681 c 4
EndSplineSet
Validated: 1
EndChar

StartChar: equal
Encoding: 61 61 70
Width: 654
VWidth: 1199
Flags: HW
LayerCount: 2
Fore
SplineSet
484 365 m 0
 504 365 533 355 548 341 c 0
 563 326 571 312 571 302 c 0
 571 281 543 268 487 263 c 0
 343 249 267 237 212 218 c 0
 145 195 48 167 38 166 c 0
 21 166 11 186 11 208 c 0
 11 223 16 239 26 249 c 0
 34 257 45 262 55 262 c 0
 57 262 60 262 62 261 c 0
 72 257 80 260 80 267 c 0
 80 275 92 281 108 281 c 0
 123 281 187 292 249 305 c 0
 311 319 385 333 413 337 c 0
 441 341 464 348 464 354 c 0
 464 362 472 365 484 365 c 0
491 554 m 0
 511 554 533 549 543 539 c 0
 554 528 559 512 559 496 c 0
 559 481 554 465 544 455 c 0
 534 445 487 440 401 438 c 0
 317 437 240 428 174 412 c 0
 119 398 62 384 48 380 c 0
 45 379 42 379 39 379 c 0
 15 379 -0 401 -0 424 c 0
 -0 439 5 454 18 465 c 0
 32 477 52 484 68 484 c 0
 81 484 93 480 98 471 c 0
 104 462 109 462 115 472 c 0
 120 480 164 491 213 498 c 0
 262 505 310 514 320 520 c 0
 330 525 362 530 391 530 c 0
 420 531 447 536 451 541 c 0
 456 549 473 554 491 554 c 0
EndSplineSet
Validated: 1
EndChar

StartChar: parenleft
Encoding: 40 40 71
Width: 415
VWidth: 1199
Flags: HW
LayerCount: 2
Fore
SplineSet
226 990 m 0
 227 990 231 990 231 990 c 2
 231 990 235 979 239 975 c 0
 244 971 250 968 257 965 c 0
 267 961 273 954 276 944 c 0
 277 940 278 936 278 932 c 0
 278 926 276 918 274 911 c 0
 266 886 245 859 215 845 c 0
 193 836 169 804 147 763 c 0
 124 723 104 672 92 624 c 0
 79 570 72 496 72 427 c 0
 72 374 76 324 85 291 c 0
 110 190 176 131 280 115 c 0
 300 111 313 108 320 103 c 0
 328 98 330 92 331 82 c 0
 333 72 332 65 327 60 c 0
 323 54 301 43 301 43 c 0
 272 31 256 27 242 27 c 0
 233 27 225 29 215 31 c 0
 189 36 163 53 131 81 c 0
 113 97 92 121 74 143 c 0
 66 154 58 164 53 172 c 0
 51 176 48 180 47 182 c 0
 46 185 45 187 45 187 c 1
 45 190 45 193 43 198 c 0
 42 202 41 208 38 214 c 0
 34 226 29 242 22 257 c 0
 8 293 -0 358 0 430 c 0
 0 502 8 581 23 646 c 0
 50 761 90 851 140 914 c 0
 157 935 178 956 196 970 c 0
 204 977 213 983 219 986 c 0
 225 990 226 990 226 990 c 0
EndSplineSet
Validated: 1
EndChar

StartChar: parenright
Encoding: 41 41 72
Width: 397
VWidth: 1199
Flags: HW
LayerCount: 2
Fore
SplineSet
60 949 m 0
 68 948 77 944 86 932 c 0
 96 920 106 901 116 876 c 0
 129 845 144 813 158 787 c 0
 164 774 171 763 176 754 c 0
 182 745 186 739 190 736 c 0
 191 735 194 731 197 725 c 0
 201 719 205 710 210 700 c 0
 220 680 231 654 243 626 c 0
 267 570 290 508 299 476 c 0
 309 438 314 397 314 355 c 0
 314 286 300 215 274 159 c 0
 258 124 230 82 203 48 c 0
 190 31 177 16 166 6 c 0
 161 1 156 -3 152 -6 c 0
 148 -8 145 -9 144 -9 c 0
 138 -9 136 -8 135 -4 c 0
 133 -1 133 7 135 18 c 0
 140 41 155 78 179 129 c 0
 225 225 245 288 245 350 c 0
 245 373 242 396 237 420 c 0
 229 459 206 522 182 580 c 0
 169 608 157 636 145 658 c 0
 133 680 123 698 114 707 c 0
 114 707 112 709 110 713 c 0
 108 716 104 720 101 725 c 0
 94 736 84 749 75 763 c 0
 65 777 56 790 49 800 c 0
 45 805 42 810 39 813 c 0
 37 817 35 819 33 820 c 2
 33 820 32 822 31 824 c 0
 29 826 28 829 26 833 c 0
 22 840 18 849 14 858 c 0
 10 868 7 877 4 884 c 0
 3 888 2 891 1 894 c 0
 0 896 0 897 0 898 c 0
 0 898 0 899 1 899 c 0
 2 901 3 903 5 906 c 0
 10 911 15 918 22 925 c 0
 37 941 49 949 60 949 c 0
EndSplineSet
Validated: 1
EndChar

StartChar: less
Encoding: 60 60 73
Width: 646
VWidth: 1199
Flags: HW
LayerCount: 2
Fore
SplineSet
9 352 m 0
 17 377 73 449 149 530 c 0
 189 573 227 637 227 661 c 0
 227 675 257 687 283 687 c 0
 291 687 298 686 304 684 c 0
 316 679 322 669 322 656 c 0
 322 640 313 620 294 601 c 0
 278 585 249 551 231 526 c 0
 212 502 190 477 182 471 c 0
 173 466 170 457 173 450 c 0
 177 444 172 439 161 439 c 0
 151 439 139 430 134 418 c 0
 130 407 119 390 111 381 c 0
 99 369 94 357 94 344 c 0
 94 314 126 285 182 271 c 0
 210 264 244 254 257 248 c 0
 270 242 313 225 353 210 c 0
 392 195 438 175 455 167 c 0
 471 158 495 151 507 151 c 0
 537 151 563 122 563 87 c 0
 563 59 541 32 521 32 c 0
 518 32 515 33 512 34 c 0
 504 37 491 42 485 44 c 0
 478 47 457 64 438 82 c 0
 419 100 399 116 393 117 c 0
 387 117 378 119 372 120 c 0
 366 120 357 125 352 130 c 0
 347 135 333 139 321 139 c 0
 309 139 299 144 299 149 c 0
 299 157 241 174 140 195 c 0
 122 199 107 206 107 212 c 0
 107 217 91 225 72 229 c 0
 38 237 -0 279 -0 308 c 0
 -0 309 -0 309 0 310 c 0
 1 318 5 337 9 352 c 0
EndSplineSet
Validated: 1
EndChar

StartChar: greater
Encoding: 62 62 74
Width: 564
VWidth: 1199
Flags: HW
LayerCount: 2
Fore
SplineSet
8 725 m 0
 23 753 46 774 64 774 c 0
 69 774 96 750 125 720 c 0
 154 690 182 666 187 666 c 0
 192 666 205 657 216 645 c 0
 234 625 270 606 424 534 c 0
 462 517 481 499 481 475 c 0
 481 447 456 412 407 362 c 0
 388 344 373 324 373 319 c 0
 373 314 359 294 343 275 c 0
 326 256 303 225 292 207 c 0
 281 189 268 174 263 174 c 0
 257 174 253 166 253 156 c 0
 253 146 248 138 241 138 c 0
 235 138 229 130 229 120 c 0
 229 110 224 102 218 102 c 0
 212 102 204 85 199 63 c 0
 195 42 185 7 178 -15 c 0
 165 -51 160 -54 112 -54 c 0
 83 -54 66 -50 66 -44 c 0
 66 -43 67 -43 67 -42 c 0
 71 -35 69 -30 62 -30 c 0
 54 -30 49 -16 49 3 c 0
 49 16 51 32 56 48 c 0
 60 61 84 85 110 102 c 0
 136 118 157 138 157 147 c 0
 157 155 162 162 167 162 c 0
 172 162 189 184 204 210 c 0
 219 236 244 274 261 294 c 0
 275 311 285 325 285 329 c 0
 285 330 285 330 284 330 c 0
 283 330 283 330 283 331 c 0
 283 335 293 347 306 361 c 0
 323 377 340 405 345 423 c 0
 346 429 347 434 347 439 c 0
 347 454 339 465 318 482 c 0
 299 498 271 514 256 518 c 0
 241 522 229 530 229 535 c 0
 229 541 221 546 211 546 c 0
 201 546 193 551 193 556 c 0
 193 561 169 578 140 592 c 0
 112 607 81 626 73 636 c 0
 65 646 50 654 40 654 c 0
 30 654 25 658 30 662 c 0
 34 667 28 677 16 683 c 0
 5 689 0 694 0 702 c 0
 0 707 3 714 8 725 c 0
EndSplineSet
Validated: 1
EndChar

StartChar: exclam
Encoding: 33 33 75
Width: 276
VWidth: 1199
Flags: HW
LayerCount: 2
Fore
SplineSet
122 194 m 0
 123 194 124 194 125 194 c 0
 147 194 167 182 179 158 c 0
 188 139 192 117 192 96 c 0
 192 40 163 -13 122 -13 c 0
 80 -13 50 40 50 106 c 0
 50 112 50 119 51 126 c 0
 55 168 89 194 122 194 c 0
72 1023 m 0
 88 1023 103 1018 107 1009 c 0
 110 1000 115 904 118 796 c 0
 120 687 129 530 136 448 c 0
 140 402 142 366 142 339 c 0
 142 301 138 283 128 283 c 0
 118 283 102 303 79 341 c 0
 61 370 49 419 40 498 c 0
 34 555 30 605 30 620 c 0
 30 621 30 622 30 623 c 0
 30 624 30 625 30 627 c 0
 30 635 28 650 25 664 c 0
 18 690 13 803 13 884 c 0
 13 912 13 936 15 952 c 0
 17 975 24 1000 31 1009 c 0
 39 1018 56 1023 72 1023 c 0
EndSplineSet
Validated: 1
EndChar

StartChar: plus
Encoding: 43 43 76
Width: 715
VWidth: 1199
Flags: HW
LayerCount: 2
Fore
SplineSet
377 617 m 0
 382 617 386 614 390 610 c 0
 394 605 397 596 399 586 c 0
 400 579 401 571 401 562 c 0
 401 548 399 532 398 518 c 2
 398 518 l 1
 385 461 389 408 382 359 c 0
 381 352 l 0
 381 351 385 347 386 347 c 2
 386 347 430 350 454 353 c 0
 467 355 491 358 516 358 c 0
 537 358 558 356 576 351 c 0
 590 348 607 334 619 320 c 0
 625 314 629 307 631 302 c 0
 632 299 632 297 632 295 c 0
 631 294 631 293 629 292 c 0
 622 290 609 281 599 272 c 0
 592 266 585 262 569 261 c 0
 563 260 555 260 546 260 c 0
 532 260 513 261 488 262 c 0
 467 263 450 264 436 264 c 0
 426 264 418 263 411 263 c 0
 393 262 382 259 376 255 c 0
 373 253 371 249 369 242 c 0
 368 236 366 227 365 217 c 0
 364 205 363 190 363 173 c 0
 363 160 364 147 364 132 c 0
 364 115 365 100 365 88 c 0
 365 66 364 50 362 39 c 0
 361 31 359 25 356 20 c 0
 353 16 349 13 344 11 c 0
 332 5 324 -0 313 -0 c 0
 312 -0 311 -0 310 -0 c 0
 298 0 291 7 287 17 c 0
 282 26 281 37 281 44 c 0
 281 46 281 58 280 76 c 0
 280 94 280 117 280 142 c 0
 280 204 280 236 277 252 c 0
 276 260 273 263 269 266 c 0
 265 269 265 269 258 269 c 0
 253 269 l 0
 249 269 l 0
 220 266 206 259 180 259 c 0
 178 259 177 259 175 259 c 0
 159 259 142 258 127 257 c 0
 113 255 102 254 96 251 c 0
 91 249 86 248 80 248 c 0
 73 248 64 250 54 255 c 0
 23 270 5 283 -1 295 c 0
 -4 301 -4 307 -1 312 c 0
 2 318 7 323 16 329 c 0
 27 337 46 340 89 340 c 0
 101 340 115 339 132 339 c 2
 132 339 l 2
 144 338 153 338 161 338 c 0
 176 338 186 339 194 341 c 0
 200 343 205 344 209 345 c 0
 213 346 217 346 222 345 c 0
 231 343 239 342 245 342 c 0
 251 342 256 343 261 345 c 0
 271 348 279 355 284 367 c 0
 296 391 302 433 311 500 c 0
 318 548 325 576 334 592 c 0
 343 608 354 613 371 617 c 0
 373 617 375 617 377 617 c 0
EndSplineSet
Validated: 1
EndChar

StartChar: hyphen
Encoding: 45 45 77
Width: 476
VWidth: 1199
Flags: HW
LayerCount: 2
Fore
SplineSet
24 492 m 0
 29 494 39 496 51 496 c 0
 64 496 78 494 92 492 c 0
 112 488 136 486 152 486 c 0
 158 486 163 486 166 487 c 0
 180 489 212 490 238 490 c 0
 263 490 290 491 321 496 c 0
 332 498 343 499 353 499 c 0
 376 499 394 492 394 467 c 0
 394 465 393 462 393 459 c 0
 386 414 367 393 335 393 c 0
 326 393 315 395 304 398 c 0
 287 404 272 407 264 407 c 0
 260 407 258 406 258 405 c 0
 257 402 242 401 232 401 c 0
 229 401 226 401 224 401 c 0
 222 401 219 401 214 401 c 0
 203 401 184 401 155 400 c 0
 115 398 87 397 65 397 c 0
 15 397 9 403 5 421 c 0
 2 432 1 441 1 449 c 0
 1 470 9 484 24 492 c 0
EndSplineSet
Validated: 1
EndChar

StartChar: grave
Encoding: 96 96 78
Width: 205
VWidth: 1199
Flags: HW
LayerCount: 2
Fore
SplineSet
34 986 m 0
 36 986 37 986 38 986 c 0
 53 983 60 969 67 958 c 0
 85 931 74 934 93 908 c 0
 99 902 102 893 106 885 c 0
 114 873 124 862 131 850 c 0
 150 815 168 779 179 741 c 0
 180 737 181 734 181 730 c 0
 181 716 173 701 159 699 c 0
 158 699 156 699 155 699 c 0
 143 699 133 711 133 723 c 0
 133 724 133 724 133 725 c 1
 125 742 108 754 98 770 c 0
 95 775 95 781 93 785 c 1
 82 787 77 797 74 805 c 0
 50 849 38 853 10 894 c 0
 1 908 -5 924 -5 940 c 0
 -5 941 -5 943 -5 944 c 0
 -4 956 -6 970 2 980 c 1
 12 983 23 984 34 986 c 0
EndSplineSet
Validated: 1
EndChar

StartChar: asciitilde
Encoding: 126 126 79
Width: 688
VWidth: 1199
Flags: HW
LayerCount: 2
Fore
SplineSet
176 677 m 0
 185 677 195 677 202 670 c 0
 205 665 211 659 218 659 c 0
 239 652 251 631 268 617 c 0
 275 612 283 608 289 601 c 0
 303 579 325 564 349 554 c 0
 370 546 391 538 413 538 c 0
 415 538 418 538 420 538 c 0
 453 545 486 558 515 577 c 0
 522 580 526 588 531 593 c 0
 538 597 545 598 552 598 c 0
 559 598 566 597 572 595 c 0
 588 592 600 579 604 564 c 0
 605 561 606 557 606 554 c 0
 606 540 597 527 587 518 c 0
 557 495 517 489 482 476 c 0
 465 469 446 463 427 463 c 0
 400 465 373 471 347 477 c 0
 338 479 325 480 321 491 c 0
 320 497 312 496 307 497 c 0
 280 510 267 539 244 556 c 0
 238 561 228 557 223 565 c 0
 221 568 224 571 223 574 c 0
 211 586 196 591 181 597 c 0
 177 599 173 599 169 599 c 0
 160 599 150 595 142 591 c 0
 109 570 77 545 54 513 c 0
 47 505 46 494 45 484 c 0
 43 472 33 459 20 459 c 0
 18 459 17 460 15 460 c 0
 5 464 -2 479 -5 490 c 0
 -2 504 1 517 5 531 c 0
 9 543 14 557 25 564 c 0
 39 572 38 589 44 601 c 0
 46 607 52 612 58 609 c 1
 58 617 65 623 72 623 c 0
 78 623 81 627 84 631 c 0
 108 656 141 676 176 677 c 0
EndSplineSet
Validated: 1
EndChar

StartChar: underscore
Encoding: 95 95 80
Width: 650
VWidth: 1199
Flags: HW
LayerCount: 2
Fore
SplineSet
25 100 m 0
 41 106 60 111 71 111 c 0
 72 111 73 111 74 111 c 0
 76 111 78 110 82 110 c 0
 99 110 136 114 173 119 c 0
 233 127 278 131 357 131 c 0
 375 131 396 130 419 130 c 0
 442 130 467 133 475 137 c 0
 478 139 483 139 488 139 c 0
 506 139 531 131 553 117 c 0
 563 111 567 98 567 84 c 0
 567 62 557 36 539 26 c 0
 531 22 510 19 488 19 c 0
 477 19 466 20 456 21 c 0
 443 23 426 23 406 23 c 0
 337 23 229 14 115 -1 c 0
 94 -4 76 -5 62 -5 c 0
 14 -5 -1 11 -3 53 c 0
 -3 56 -3 59 -3 61 c 0
 -3 81 4 90 25 100 c 0
EndSplineSet
Validated: 1
EndChar

StartChar: braceleft
Encoding: 123 123 81
Width: 764
VWidth: 1199
Flags: HW
LayerCount: 2
Fore
SplineSet
0 335 m 0
 13 383 35 407 67 407 c 0
 83 407 102 401 123 389 c 0
 142 378 154 373 161 373 c 0
 169 373 171 380 171 395 c 0
 171 408 173 445 179 457 c 0
 194 485 205 539 205 615 c 0
 205 636 204 659 202 683 c 0
 197 761 194 824 194 875 c 0
 194 974 204 1030 223 1068 c 0
 247 1117 274 1143 302 1143 c 0
 312 1143 323 1139 333 1131 c 0
 348 1120 356 1106 356 1089 c 0
 356 1067 341 1041 313 1012 c 0
 283 981 275 973 275 925 c 0
 275 910 276 891 277 866 c 0
 281 747 283 657 283 586 c 0
 283 375 263 336 206 225 c 0
 193 200 187 177 187 149 c 0
 187 142 187 134 188 125 c 0
 196 52 231 -62 255 -87 c 0
 281 -114 345 -145 375 -145 c 0
 401 -145 532 -89 543 -73 c 0
 549 -65 600 -45 617 -44 c 0
 622 -43 629 -39 634 -34 c 0
 639 -29 653 -25 664 -25 c 0
 676 -25 681 -30 681 -38 c 0
 681 -54 660 -80 626 -99 c 0
 600 -114 579 -130 579 -135 c 0
 579 -141 569 -145 555 -145 c 0
 542 -145 531 -150 531 -156 c 0
 531 -162 503 -181 469 -198 c 0
 427 -219 385 -229 346 -229 c 0
 292 -229 243 -209 210 -169 c 0
 185 -140 135 -29 135 -2 c 0
 135 12 130 23 123 23 c 0
 117 23 111 37 111 54 c 0
 111 70 105 110 97 141 c 0
 85 190 73 207 25 240 c 0
 13 248 -1 296 -1 323 c 0
 -1 328 -1 332 0 335 c 0
EndSplineSet
Validated: 1
EndChar

StartChar: braceright
Encoding: 125 125 82
Width: 642
VWidth: 1199
Flags: HW
LayerCount: 2
Fore
SplineSet
1 949 m 0
 5 964 18 987 30 1000 c 0
 41 1014 51 1030 51 1037 c 0
 51 1043 57 1049 65 1049 c 0
 73 1049 91 1060 106 1074 c 0
 126 1093 178 1108 208 1108 c 0
 222 1108 231 1105 231 1098 c 0
 231 1091 237 1084 246 1084 c 0
 268 1084 301 1033 312 981 c 0
 317 959 319 935 319 904 c 0
 319 858 314 799 303 719 c 0
 284 581 275 473 275 392 c 0
 275 301 287 244 311 218 c 0
 323 204 341 197 355 197 c 0
 367 197 377 202 380 212 c 0
 414 336 452 393 498 393 c 0
 502 393 506 393 510 392 c 0
 533 388 543 375 552 340 c 0
 557 322 559 306 559 290 c 0
 559 254 547 221 521 180 c 0
 498 143 491 114 489 48 c 0
 488 1 483 -46 478 -57 c 0
 473 -68 467 -86 466 -96 c 0
 464 -107 446 -140 425 -169 c 0
 393 -214 377 -227 328 -227 c 0
 316 -227 303 -226 287 -225 c 0
 236 -222 174 -180 147 -129 c 0
 141 -118 138 -110 138 -104 c 0
 138 -98 141 -94 148 -90 c 0
 159 -84 166 -86 168 -95 c 0
 170 -103 201 -119 237 -130 c 0
 267 -139 284 -144 298 -144 c 0
 312 -144 323 -139 339 -131 c 0
 382 -110 411 -49 411 23 c 0
 411 75 398 89 350 89 c 0
 312 89 248 156 227 217 c 0
 217 248 211 304 211 377 c 0
 211 471 220 593 237 726 c 0
 247 802 252 859 252 902 c 0
 252 983 233 1011 187 1011 c 0
 177 1011 166 1009 153 1007 c 0
 124 1002 109 991 99 965 c 0
 83 928 46 898 19 898 c 0
 16 898 12 899 9 900 c 0
 -2 905 -7 907 -7 915 c 0
 -7 922 -4 932 1 949 c 0
EndSplineSet
Validated: 1
EndChar

StartChar: bracketleft
Encoding: 91 91 83
Width: 572
VWidth: 1199
Flags: HW
LayerCount: 2
Fore
SplineSet
10 942 m 0
 15 942 26 955 34 972 c 0
 41 988 53 1002 60 1002 c 0
 66 1002 83 1013 96 1026 c 0
 109 1039 128 1050 138 1050 c 0
 148 1050 156 1054 156 1060 c 0
 156 1065 168 1068 183 1067 c 0
 198 1065 219 1063 230 1063 c 0
 244 1062 249 1053 249 1039 c 0
 249 1007 217 953 183 951 c 0
 168 950 156 944 156 939 c 0
 156 934 146 930 133 930 c 0
 121 930 104 922 96 912 c 0
 88 903 85 882 85 858 c 0
 85 825 92 787 104 768 c 0
 113 755 120 730 120 712 c 0
 120 694 125 676 132 671 c 0
 139 667 143 657 140 650 c 0
 139 648 139 645 139 642 c 0
 139 634 142 623 146 614 c 0
 169 570 180 450 181 234 c 0
 182 112 188 2 194 -10 c 0
 201 -23 208 -29 245 -29 c 0
 266 -29 296 -27 341 -24 c 0
 382 -22 411 -20 432 -20 c 0
 466 -20 476 -24 477 -32 c 0
 478 -41 482 -60 486 -74 c 0
 487 -79 488 -83 488 -87 c 0
 488 -108 464 -116 390 -116 c 0
 365 -116 335 -116 299 -114 c 0
 141 -108 113 -105 113 -33 c 0
 113 -20 114 -5 115 13 c 0
 117 59 121 112 122 132 c 0
 123 144 123 159 123 175 c 0
 123 298 101 515 76 618 c 0
 59 687 40 749 34 755 c 0
 29 762 24 779 24 794 c 0
 24 808 18 824 12 828 c 0
 4 833 0 864 0 893 c 0
 0 918 3 942 10 942 c 0
EndSplineSet
Validated: 1
EndChar

StartChar: bracketright
Encoding: 93 93 84
Width: 337
VWidth: 1199
Flags: HW
LayerCount: 2
Fore
SplineSet
5 1056 m 0
 9 1060 42 1063 79 1063 c 0
 116 1063 163 1067 182 1073 c 0
 192 1076 201 1078 208 1078 c 0
 219 1078 227 1074 234 1067 c 0
 245 1055 249 929 253 550 c 0
 254 452 254 357 254 272 c 0
 254 118 253 1 251 -25 c 0
 246 -96 244 -100 202 -121 c 0
 178 -133 156 -147 154 -152 c 0
 152 -158 142 -161 131 -161 c 0
 113 -161 90 -155 76 -144 c 0
 64 -135 58 -125 58 -114 c 0
 58 -96 76 -77 110 -60 c 0
 169 -30 176 -21 176 27 c 0
 176 48 181 68 187 72 c 0
 193 76 196 228 196 406 c 0
 196 652 191 945 182 953 c 0
 169 965 134 974 110 974 c 0
 99 974 90 972 87 967 c 0
 82 959 71 955 60 955 c 0
 45 955 29 961 20 973 c 0
 8 988 0 1016 0 1037 c 0
 0 1045 2 1052 5 1056 c 0
EndSplineSet
Validated: 1
EndChar

StartChar: question
Encoding: 63 63 85
Width: 471
VWidth: 1199
Flags: HW
LayerCount: 2
Fore
SplineSet
93 110 m 0
 119 110 134 87 134 43 c 0
 134 10 128 -5 108 -25 c 0
 93 -39 76 -50 71 -50 c 0
 53 -50 23 -10 23 13 c 0
 23 25 18 38 13 41 c 0
 7 44 4 48 4 52 c 0
 4 59 12 69 31 83 c 0
 55 101 76 110 93 110 c 0
235 422 m 1
 180 379 161 335 142 292 c 1
 124 252 l 1
 119 237 l 1
 118 230 l 1
 109 211 l 1
 92 199 l 1
 71 195 l 1
 52 203 l 1
 47 215 l 1
 48 228 l 1
 55 263 l 1
 86 364 l 1
 90 378 128 434 178 498 c 1
 178 498 178 497 179 497 c 0
 235 555 268 612 268 615 c 0
 268 615 268 615 268 615 c 1
 300 656 317 701 317 735 c 0
 317 741 316 747 315 753 c 1
 290 867 l 1
 269 890 l 1
 264 900 l 1
 260 904 l 1
 248 915 l 1
 240 916 237 914 232 913 c 2
 147 887 l 1
 76 846 l 1
 32 820 l 1
 9 822 l 1
 -6 848 l 1
 -1 861 l 1
 9 876 l 1
 42 909 l 1
 91 958 142 976 218 997 c 1
 231 999 l 1
 273 994 l 1
 287 989 l 1
 293 983 l 1
 293 976 l 1
 294 976 l 1
 309 969 l 1
 322 956 l 1
 352 916 l 1
 364 900 376 870 383 835 c 0
 386 815 388 796 388 780 c 1
 389 777 389 772 389 765 c 0
 389 742 385 698 375 656 c 1
 357 610 l 1
 350 591 l 1
 345 584 l 1
 342 577 339 569 336 562 c 1
 326 547 l 1
 318 528 l 1
 301 503 l 1
 296 488 243 440 235 422 c 1
EndSplineSet
Validated: 1
EndChar

StartChar: asciicircum
Encoding: 94 94 86
Width: 616
VWidth: 1199
Flags: HW
LayerCount: 2
Fore
SplineSet
16 687 m 0
 30 709 39 728 39 733 c 0
 39 734 39 734 39 734 c 0
 37 736 41 745 49 753 c 0
 56 761 59 768 56 768 c 0
 53 768 58 776 68 786 c 0
 104 825 154 904 179 962 c 0
 203 1017 215 1036 237 1036 c 0
 244 1036 252 1034 261 1031 c 0
 294 1021 298 1013 408 792 c 0
 451 705 493 631 509 616 c 0
 525 599 534 584 534 571 c 0
 534 570 534 570 534 569 c 0
 533 559 529 550 526 550 c 0
 522 550 520 545 520 539 c 0
 520 529 498 520 483 520 c 0
 478 520 474 521 472 524 c 0
 469 528 461 533 454 536 c 0
 442 540 358 698 358 717 c 0
 358 727 307 829 294 844 c 0
 288 851 286 857 289 857 c 0
 291 857 287 863 279 871 c 0
 272 880 262 893 257 901 c 0
 255 905 253 907 250 907 c 0
 245 907 238 896 222 868 c 0
 207 842 183 802 167 780 c 0
 152 758 130 720 119 695 c 0
 73 596 73 596 44 593 c 0
 41 593 38 593 35 593 c 0
 20 593 11 597 2 608 c 0
 -7 617 -11 624 -11 632 c 0
 -11 642 -3 657 16 687 c 0
EndSplineSet
Validated: 1
EndChar

StartChar: slash
Encoding: 47 47 87
Width: 650
VWidth: 1199
Flags: HW
LayerCount: 2
Fore
SplineSet
75 62 m 0
 111 121 157 199 178 235 c 0
 198 270 220 304 227 309 c 0
 234 313 244 335 249 356 c 0
 254 376 263 391 270 391 c 0
 270 391 271 391 271 391 c 0
 278 390 281 394 279 402 c 0
 279 403 278 404 278 405 c 0
 278 414 288 432 301 447 c 0
 315 465 335 497 345 520 c 0
 355 542 380 589 401 623 c 0
 425 663 445 714 455 761 c 0
 466 815 477 839 493 850 c 0
 507 858 518 858 521 850 c 0
 523 843 535 834 546 832 c 0
 560 828 567 817 567 800 c 0
 567 784 560 762 547 736 c 0
 535 713 513 667 499 633 c 0
 472 570 440 512 414 475 c 0
 405 463 378 417 353 372 c 0
 327 327 300 283 292 274 c 0
 284 265 268 234 257 205 c 0
 245 176 230 151 224 149 c 0
 217 147 208 127 202 106 c 0
 197 84 187 66 180 65 c 0
 172 65 154 23 138 -27 c 0
 112 -109 98 -136 73 -136 c 0
 65 -136 57 -134 48 -131 c 0
 17 -120 -0 -110 -0 -89 c 0
 -0 -64 24 -21 75 62 c 0
EndSplineSet
Validated: 1
EndChar

StartChar: backslash
Encoding: 92 92 88
Width: 650
VWidth: 1199
Flags: HW
LayerCount: 2
Fore
SplineSet
493 62 m 0
 544 -21 567 -64 567 -89 c 0
 567 -110 551 -120 519 -131 c 0
 510 -134 502 -136 495 -136 c 0
 469 -136 456 -109 430 -27 c 0
 414 23 395 65 388 65 c 0
 380 66 370 84 365 106 c 0
 360 127 350 147 344 149 c 0
 337 151 322 176 311 205 c 0
 299 234 283 265 275 274 c 0
 267 283 240 327 215 372 c 0
 190 417 162 463 154 475 c 0
 127 512 96 570 68 633 c 0
 54 667 32 713 20 736 c 0
 7 762 -0 784 -0 800 c 0
 -0 817 7 828 21 832 c 0
 33 834 44 843 47 850 c 0
 49 858 60 858 74 850 c 0
 91 839 101 815 112 761 c 0
 122 714 142 663 166 623 c 0
 188 589 213 542 222 520 c 0
 232 497 252 465 267 447 c 0
 280 431 289 413 289 404 c 0
 289 403 289 403 289 402 c 0
 286 394 290 390 296 391 c 0
 296 391 297 391 297 391 c 0
 304 391 313 376 318 356 c 0
 323 335 333 313 340 309 c 0
 347 304 369 270 390 235 c 0
 410 199 456 121 493 62 c 0
EndSplineSet
Validated: 1
EndChar

StartChar: ampersand
Encoding: 38 38 89
Width: 724
VWidth: 1199
Flags: HW
LayerCount: 2
Fore
SplineSet
171 343 m 0
 166 343 151 322 131 288 c 0
 104 238 86 184 86 150 c 0
 86 144 87 139 88 134 c 0
 91 124 96 119 107 119 c 0
 113 119 121 121 131 123 c 0
 152 128 184 147 202 165 c 0
 220 183 227 192 227 208 c 0
 227 220 223 235 216 261 c 0
 204 303 194 320 184 320 c 0
 184 320 183 320 182 320 c 0
 173 318 167 322 170 330 c 0
 173 339 173 343 171 343 c 0
281 766 m 0
 250 754 221 734 212 666 c 0
 210 655 210 645 210 636 c 0
 210 595 223 569 236 569 c 0
 237 569 237 569 238 569 c 0
 255 573 285 602 302 620 c 0
 312 630 330 662 330 688 c 0
 330 692 330 695 329 699 c 0
 317 746 306 767 288 767 c 0
 286 767 284 767 281 766 c 0
254 836 m 0
 267 839 279 841 291 841 c 0
 332 841 361 819 379 770 c 0
 388 747 394 727 394 704 c 0
 394 656 366 599 281 483 c 0
 263 458 255 445 255 425 c 0
 255 410 260 392 267 362 c 0
 281 304 293 275 314 275 c 0
 332 275 358 298 397 344 c 0
 477 435 522 503 522 528 c 0
 522 530 522 531 522 532 c 0
 521 534 521 536 521 539 c 0
 521 560 549 575 578 575 c 0
 592 575 606 572 618 564 c 0
 635 553 641 545 641 530 c 0
 641 524 640 518 639 510 c 0
 636 491 625 467 615 458 c 0
 605 448 571 410 541 372 c 0
 462 273 410 216 395 212 c 0
 373 207 343 153 343 126 c 0
 343 122 343 119 345 116 c 0
 351 106 351 130 377 41 c 0
 403 -48 402 -22 410 -44 c 0
 417 -61 420 -76 420 -87 c 0
 420 -108 410 -120 390 -121 c 0
 389 -121 389 -121 388 -121 c 0
 364 -121 342 -104 323 -53 c 0
 293 26 273 57 234 57 c 0
 213 57 187 48 150 34 c 0
 115 20 95 14 79 14 c 0
 66 14 56 18 44 24 c 0
 15 40 -0 70 -0 115 c 0
 -0 136 3 161 10 188 c 0
 27 258 65 334 116 404 c 0
 142 440 154 467 154 499 c 0
 154 513 151 528 147 546 c 0
 142 565 140 585 140 605 c 0
 140 665 159 727 187 788 c 0
 200 816 213 826 254 836 c 0
EndSplineSet
Validated: 1
EndChar

StartChar: dollar
Encoding: 36 36 90
Width: 438
VWidth: 1199
Flags: HW
LayerCount: 2
Fore
SplineSet
265 270 m 0
 262 271 258 268 251 263 c 0
 242 256 239 246 239 221 c 0
 239 212 239 202 240 188 c 0
 241 154 246 123 249 120 c 0
 251 118 252 118 255 118 c 0
 267 118 289 146 293 172 c 0
 294 179 295 186 295 193 c 0
 295 215 288 236 276 258 c 0
 272 266 269 270 265 270 c 0
114 603 m 0
 112 603 110 603 108 602 c 0
 77 599 56 548 56 500 c 0
 56 474 62 449 75 433 c 0
 94 408 114 396 132 396 c 0
 136 396 140 396 143 397 c 0
 154 401 159 407 159 427 c 0
 159 446 154 476 144 527 c 0
 131 591 128 602 114 603 c 0
119 875 m 0
 124 876 130 873 139 868 c 0
 156 859 160 850 160 822 c 0
 161 744 178 716 230 708 c 0
 263 702 280 692 290 672 c 0
 293 665 295 660 295 655 c 0
 295 641 280 635 247 635 c 0
 230 635 212 632 206 628 c 0
 198 623 194 609 194 585 c 0
 194 556 200 514 212 460 c 2
 232 367 l 1
 278 336 l 2
 342 294 352 273 354 177 c 0
 354 175 354 174 354 172 c 0
 354 110 334 69 285 27 c 0
 266 10 257 -4 257 -21 c 0
 257 -32 261 -43 269 -57 c 0
 277 -72 281 -88 281 -103 c 0
 281 -121 275 -138 261 -146 c 0
 252 -152 246 -155 240 -155 c 0
 234 -155 228 -151 217 -143 c 0
 198 -127 195 -118 195 -75 c 0
 195 -48 190 -21 185 -15 c 0
 179 -9 150 -5 117 -5 c 0
 70 -5 56 -2 44 12 c 0
 37 19 34 25 34 31 c 0
 34 45 55 54 98 59 c 0
 166 67 182 81 182 139 c 0
 182 144 182 150 182 156 c 0
 181 189 180 234 179 257 c 0
 178 288 174 300 163 303 c 0
 92 327 5 395 5 426 c 0
 5 434 3 454 1 471 c 0
 0 475 -0 479 -0 485 c 0
 -0 504 4 532 9 555 c 0
 22 612 35 636 85 689 c 0
 104 709 111 718 111 730 c 0
 111 736 110 744 107 754 c 0
 98 791 93 817 93 836 c 0
 93 852 97 862 104 868 c 0
 109 873 114 875 119 875 c 0
EndSplineSet
Validated: 1
EndChar

StartChar: percent
Encoding: 37 37 91
Width: 644
VWidth: 1199
Flags: HW
LayerCount: 2
Fore
SplineSet
450 340 m 0
 455 340 461 339 468 338 c 0
 520 333 562 258 562 192 c 0
 562 171 558 152 549 135 c 0
 525 89 464 56 420 56 c 0
 404 56 390 60 381 70 c 0
 371 81 366 100 366 125 c 0
 366 155 373 193 389 232 c 0
 425 325 429 340 450 340 c 0
475 952 m 0
 506 952 522 933 522 900 c 0
 522 876 513 844 496 807 c 0
 459 729 422 646 393 579 c 0
 381 551 362 508 351 483 c 0
 339 458 318 409 304 375 c 0
 290 340 267 286 253 255 c 0
 240 224 222 180 214 158 c 0
 206 136 195 108 190 96 c 0
 185 83 173 54 163 30 c 0
 152 2 141 -12 131 -12 c 0
 126 -12 122 -9 118 -3 c 0
 110 10 105 40 105 62 c 0
 105 73 106 82 109 85 c 0
 114 91 125 116 133 141 c 0
 141 166 163 219 181 259 c 0
 199 298 217 344 221 361 c 0
 225 378 232 397 236 403 c 0
 256 430 396 798 401 837 c 0
 404 861 409 891 412 904 c 0
 414 916 417 930 417 934 c 0
 418 938 434 945 454 950 c 0
 461 951 469 952 475 952 c 0
63 859 m 0
 64 859 65 859 66 859 c 0
 85 859 102 848 138 815 c 0
 175 781 193 753 193 725 c 0
 193 703 182 682 160 659 c 0
 138 636 113 625 89 625 c 0
 67 625 45 634 26 652 c 0
 1 674 -4 690 -6 754 c 0
 -6 762 -7 770 -7 777 c 0
 -7 812 -2 835 5 841 c 0
 12 847 33 855 51 858 c 0
 55 859 59 859 63 859 c 0
EndSplineSet
Validated: 1
EndChar

StartChar: bar
Encoding: 124 124 92
Width: 270
VWidth: 1199
Flags: HW
LayerCount: 2
Fore
SplineSet
8 935 m 0
 17 948 37 956 56 956 c 0
 69 956 81 952 88 945 c 0
 109 924 118 828 118 590 c 0
 118 544 118 493 117 436 c 0
 117 398 116 362 116 329 c 0
 116 77 131 -34 174 -144 c 0
 182 -165 186 -183 186 -197 c 0
 186 -222 173 -236 149 -236 c 0
 102 -236 87 -207 66 -78 c 0
 41 75 33 145 33 333 c 0
 33 403 34 490 36 604 c 0
 36 639 37 668 37 693 c 0
 37 796 33 826 19 853 c 0
 6 877 -0 895 -0 909 c 0
 -0 919 3 927 8 935 c 0
EndSplineSet
Validated: 1
EndChar

StartChar: quotesingle
Encoding: 39 39 95
Width: 208
VWidth: 1199
Flags: HW
LayerCount: 2
Fore
SplineSet
22 693 m 0
 69 721 83 722 83 793 c 0
 83 800 83 808 83 817 c 0
 82 837 83 831 70 886 c 0
 64 910 61 930 61 947 c 0
 61 969 68 985 87 998 c 0
 101 1007 109 1011 116 1011 c 0
 123 1011 129 1007 140 997 c 0
 171 969 185 819 185 819 c 1
 185 710 183 697 177 697 c 0
 175 697 172 698 169 698 c 0
 165 698 160 696 154 683 c 0
 128 630 117 619 82 613 c 0
 69 611 58 609 48 609 c 0
 21 609 6 619 -7 643 c 0
 -11 650 -13 655 -13 660 c 0
 -13 670 -3 678 22 693 c 0
EndSplineSet
Validated: 1
EndChar

StartChar: quotedblleft
Encoding: 8220 8220 96
Width: 307
Flags: HW
LayerCount: 2
Fore
SplineSet
219 671 m 2
 214 671 l 2
 204 671 193 676 181 684 c 0
 170 692 165 708 165 728 c 0
 165 765 183 816 214 854 c 0
 249 897 260 908 271 908 c 0
 273 908 276 908 278 907 c 0
 288 903 293 887 293 868 c 0
 293 849 288 827 279 811 c 1
 275 802 l 1
 267 788 264 765 264 753 c 0
 264 695 248 671 219 671 c 2
57 725 m 0
 38 725 16 744 7 770 c 0
 5 776 4 781 4 786 c 0
 4 800 12 815 33 845 c 0
 53 872 82 907 98 923 c 0
 114 938 122 945 128 945 c 0
 132 945 136 941 141 934 c 0
 148 925 152 920 152 912 c 0
 152 902 145 885 127 841 c 0
 89 745 82 732 67 726 c 0
 64 725 60 724 57 725 c 0
EndSplineSet
Validated: 1
EndChar

StartChar: quotedblright
Encoding: 8221 8221 97
Width: 323
Flags: HW
LayerCount: 2
Fore
SplineSet
92 934 m 2
 93 934 l 2
 103 934 114 930 126 921 c 0
 137 913 142 896 142 876 c 0
 142 840 125 790 94 752 c 0
 58 709 47 697 36 697 c 0
 34 697 31 697 29 698 c 0
 19 702 14 718 14 737 c 0
 14 756 19 778 28 795 c 1
 28 795 l 1
 36 809 43 834 43 852 c 0
 44 902 61 934 89 934 c 0
 89 934 90 934 90 934 c 0
 92 934 l 2
250 881 m 0
 269 880 291 861 300 836 c 0
 302 830 303 825 303 819 c 0
 303 805 295 790 274 760 c 0
 254 733 225 698 209 682 c 0
 193 667 186 660 180 660 c 0
 175 660 172 664 167 671 c 0
 160 680 156 685 156 693 c 0
 156 703 163 720 180 765 c 0
 218 861 225 873 240 879 c 0
 243 880 247 881 250 881 c 0
EndSplineSet
Validated: 1
EndChar

StartChar: quoteleft
Encoding: 8216 8216 99
Width: 208
VWidth: 1199
Flags: HW
LayerCount: 2
Fore
SplineSet
156 938 m 0
 110 910 94 908 94 841 c 0
 94 833 95 823 95 813 c 0
 96 793 94 801 108 746 c 0
 114 722 117 702 117 685 c 0
 117 663 110 647 91 634 c 0
 77 625 69 620 62 620 c 0
 55 620 49 625 38 635 c 0
 7 663 -7 812 -7 812 c 1
 -7 920 -5 934 1 934 c 0
 3 934 5 932 8 932 c 0
 13 932 18 935 24 948 c 0
 50 1000 61 1011 96 1018 c 0
 109 1020 120 1022 130 1022 c 0
 157 1022 172 1011 185 987 c 0
 189 980 191 975 191 970 c 0
 191 960 181 952 156 938 c 0
EndSplineSet
Validated: 1
EndChar

StartChar: quoteright
Encoding: 8217 8217 100
Width: 208
VWidth: 1199
Flags: HW
LayerCount: 2
Fore
SplineSet
22 693 m 0
 69 721 83 722 83 793 c 0
 83 800 83 808 83 817 c 0
 82 837 83 831 70 886 c 0
 64 910 61 930 61 947 c 0
 61 969 68 985 87 998 c 0
 101 1007 109 1011 116 1011 c 0
 123 1011 129 1007 140 997 c 0
 171 969 185 819 185 819 c 1
 185 710 183 697 177 697 c 0
 175 697 172 698 169 698 c 0
 165 698 160 696 154 683 c 0
 128 630 117 619 82 613 c 0
 69 611 58 609 48 609 c 0
 21 609 6 619 -7 643 c 0
 -11 650 -13 655 -13 660 c 0
 -13 670 -3 678 22 693 c 0
EndSplineSet
Validated: 1
EndChar
